<svg id="Layer_1" data-name="Layer 1" xmlns="http://www.w3.org/2000/svg" viewBox="0 0 133.06 133.06"><defs><style>.cls-1{fill:#ff8a00;}</style></defs><title>icon1</title><path class="cls-1" d="M746.5,404.22c-4.68.08-9.36,0-14,0a1.91,1.91,0,0,1-1.36-.45,16.56,16.56,0,0,0-10.54-6.06c-3.2-.61-6.37-1.39-9.74-2.13l1.27-1a16.58,16.58,0,0,0,6.12-10.68,61.81,61.81,0,0,0,.28-8.29,44.69,44.69,0,0,0-.31-7.51A17.5,17.5,0,0,0,683.45,371c0,3.38,0,6.76,0,10.14a17.27,17.27,0,0,0,6.71,13.74c.25.21.49.44.86.76l-12.72,2.8v-1.55q0-9.75,0-19.49c0-1.81-.93-3-2.55-3q-8.91-.06-17.8,0a2.54,2.54,0,0,0-2.51,2.62,2.62,2.62,0,0,0,2.47,2.54c.35,0,.69,0,1,0H673v36.31H655.43v-1.49c0-3.81,0-7.62,0-11.43a7.79,7.79,0,1,0-15.57.06c0,3.12,0,6.24,0,9.35v3.5H622.27v-36.3H637a2.6,2.6,0,1,0,0-5.19c-5.5,0-11,0-16.5,0a3.51,3.51,0,0,0-3.53,1.84v43.14a3.51,3.51,0,0,0,3.53,1.85c5.92-.07,11.84,0,17.76,0h1.49V426a8.38,8.38,0,0,0-6.17,2.76,8.73,8.73,0,0,0-2.05,6.65H628c-2.51,0-5,.07-7.52,0a3.44,3.44,0,0,0-3.53,1.84V451H750v-45A3.5,3.5,0,0,0,746.5,404.22ZM692.91,361.8a11.73,11.73,0,0,1,13.21-1.87c4.17,1.89,6.45,5.29,7.17,10.2l-5.44-3.19c-1.89-1.1-2.84-1-4.32.64a13.51,13.51,0,0,1-10,4.48c-1.55,0-3.11,0-4.83,0A11.78,11.78,0,0,1,692.91,361.8Zm-4.25,19.63c0-1.33,0-2.67,0-4.36,2.63,0,5.06.19,7.45,0a17,17,0,0,0,9.44-4.23,1.28,1.28,0,0,1,1.8-.14c1.68,1.06,3.43,2,5.12,3,.35.22.82.67.81,1a39.84,39.84,0,0,1-.45,7.35,12.13,12.13,0,0,1-13.21,9.25A12.34,12.34,0,0,1,688.66,381.43Zm16.25,17-3.84,10.28h-.3l-3.84-10.28ZM673,421.14c.83,0,1.64,0,2.45,0a2.64,2.64,0,0,0,2.88-2.92c0-4.2.07-8.4,0-12.6a1.87,1.87,0,0,1,1.69-2.21c4-.9,8.09-1.82,12.23-2.76.42,1.07.81,2.06,1.18,3.06,1.64,4.37,3.3,8.74,4.91,13.12.47,1.29,1.16,2.24,2.65,2.24s2.18-1,2.66-2.25c2-5.34,4-10.68,6.06-16.18l13.72,3.09-.05.43c-.3,0-.6.09-.9.09h-7.67c-2.23,0-3.17.94-3.17,3.15q0,13.25,0,26.5v1.46H673Zm43.85-1.23h27.95v5H716.82Zm-61.32,1.3h12.11v14.12h-3.78c0-5.48-2.65-8.74-8.33-9.35Zm-8.17-20.84a2.64,2.64,0,0,1,2.9,2.89c0,5.15,0,10.3,0,15.46V426h-5.1a8.2,8.2,0,0,1-.1-.85q0-10.92,0-21.82A2.68,2.68,0,0,1,647.33,400.37Zm-7.08,30.91H655c2.68,0,3.79,1.32,3.39,4.09H636.84C636.48,432.57,637.56,431.28,640.25,431.28Zm104.52,14.46H622.23v-5H744.77Zm0-10.37H716.83v-5h27.94Zm0-20.81H716.84v-5.05h27.94ZM645.1,365.73a24,24,0,0,0,3.51-46.49c-1.66-.55-3.42-.85-5.13-1.27h-4.94a48.18,48.18,0,0,0-5.73,1.49c-8.84,3.47-14.08,9.94-15.61,19.35a4.75,4.75,0,0,1-.23.73v4.94a6.9,6.9,0,0,1,.24.86A24.09,24.09,0,0,0,645.1,365.73ZM641,323.17a18.85,18.85,0,1,1-18.84,19A18.86,18.86,0,0,1,641,323.17Zm4,53.74a2.59,2.59,0,1,0,2.58-2.54A2.62,2.62,0,0,0,645.05,376.91ZM639.38,344a48.59,48.59,0,0,0,3.64,3.68,2.59,2.59,0,1,0,3.67-3.65c-.73-.8-1.58-1.49-2.25-2.32a3.17,3.17,0,0,1-.75-1.79c-.07-3.28,0-6.56,0-9.85,0-2-1-3.2-2.58-3.22s-2.59,1.15-2.61,3.16,0,3.81,0,5.71-.08,4,0,6A4.22,4.22,0,0,0,639.38,344Z" transform="translate(-616.97 -317.97)"/></svg>