<?xml version="1.0" encoding="utf-8"?>
<!-- Generator: Adobe Illustrator 24.0.0, SVG Export Plug-In . SVG Version: 6.00 Build 0)  -->
<svg version="1.1" id="Layer_1" xmlns="http://www.w3.org/2000/svg" xmlns:xlink="http://www.w3.org/1999/xlink" x="0px" y="0px"
	 viewBox="0 0 770.1 646.2" style="enable-background:new 0 0 770.1 646.2;" xml:space="preserve">
<style type="text/css">
	.st0{fill:#FEFEFE;}
	.st1{fill:#1E89B8;}
	.st2{fill:#00A657;}
	.st3{fill:#0D6297;}
	.st4{fill:#FFFFFF;}
	.st5{fill:#00B8EA;}
</style>
<title>Asset 4</title>
<g id="Layer_2_1_">
	<g id="Layer_1-2">
		<path d="M392.8,509c-140.3,0.1-254.2-113.9-254.2-254.4S252.3,0,392.6,0c140.6,0,254.9,114.3,254.6,254.7
			C646.9,395.3,533.3,508.9,392.8,509z"/>
		<path class="st0" d="M153,254.6c0-132.4,107.2-239.9,239.5-240c132.6-0.2,240.1,107.2,240.1,239.8s-107.3,240.1-239.9,240
			C260.4,494.4,153,387,153,254.6z"/>
		<path class="st1" d="M392.4,190.4l26.3-33.4c-42.3-5.8-156.9,27.4-196.2,57.1h80c-61.4,41.5-94.3,97.9-99,170.6
			c-40.9-54.2-58.4-143.8-21.3-225.2C222.7,71,306,30.5,370.2,25.8c-17.4,5.1-32.4,12.1-46,21.8c-13.9,9.9-25.9,22.1-35.7,36
			c-8.4,11.8-9.5,24.4-3.3,37.3s17.2,19.6,31.4,20.5c17,1.1,33.9-0.1,50.8-2.2c23.7-2.7,47.6-2.7,71.3-0.1
			c19.5,2,39.1,4.3,57.6,11.4c60.5,23.1,96.8,66.7,106.8,130.7c6.2,39.6-2.2,77.3-25.3,110.3c-20.5,29.3-47.8,51.4-79.8,67.3
			c-58.6,29.2-119.2,33-181.2,12.3c-34.4-11.5-54.5-47.9-46.8-83.3c1.8-8.2,3.3-16.6,6.6-24.4c6.8-15,15-29.3,24.5-42.7
			c13.1-18.5,27.3-36.1,42.7-52.7c12.1-13.3,25.1-25.7,38.3-37.9c15.8-14.7,32.5-28.4,49.8-41.2c-12.2,1.5-24.1,1.5-36,2.6
			C394.6,191.5,393.3,191.7,392.4,190.4z"/>
		<path class="st2" d="M601.4,156.8c-2.5-2.2-4.8-4.3-7.1-6.3c-45.8-39.6-99-57.7-159.5-54.2c-17,1-33.5,5.2-50.5,5.9
			c-9.4,0.3-18.7,0.5-27.9-0.6c-8.2-1-14.4-5.3-16.9-13.5s-0.3-15.5,6.4-21.1c42.8-35.4,90.4-44.2,141.6-22.3
			c50.5,21.6,87.6,58.3,112.6,107.2C600.6,153.3,602,154.5,601.4,156.8z"/>
		<path class="st3" d="M392.4,190.4c12.2-0.9,24.4-1.8,36.6-2.7c1.6-0.1,3.2-0.5,5.4,0.5c-5.3,4.2-10.2,8.1-15.2,12.1
			c-13.8,10.8-27.2,22.3-40,34.3c-6.7,6.3-13.4,12.4-19.9,18.9c-24.3,24.6-46.7,50.8-65.3,80.1c-5.4,8.6-10.3,17.5-14.7,26.6
			c-0.6,1.2-0.6,3.2-2.7,3.2c7.2-24.9,18.5-48.4,33.5-69.6c17-24.4,36.8-46.7,55.2-70.1C374.2,212.4,383.4,201.4,392.4,190.4z"/>
		<path class="st4" d="M24.3,640c-7.4-3.9-13.5-9.7-17.8-16.8c-8.6-14.9-8.6-33.3,0-48.2c4.3-7.1,10.4-13,17.8-16.8
			c7.9-4.2,16.6-6.3,25.5-6.1c8.9-0.1,17.6,2,25.5,6.1c22.6,12.1,31.2,40.2,19.1,62.8c-4.3,8.1-11,14.8-19.1,19.1
			c-7.8,4.1-16.6,6.2-25.5,6.1C40.9,646.2,32.1,644.1,24.3,640z M64.3,624.5c4.3-2.4,7.8-6,10.2-10.3c4.9-9.4,4.9-20.7,0-30.2
			c-2.4-4.3-5.9-7.9-10.2-10.3c-4.4-2.5-9.5-3.7-14.6-3.6c-5.1-0.1-10.1,1.2-14.6,3.7c-4.3,2.4-7.8,6-10.2,10.3
			c-4.9,9.4-4.9,20.7,0,30.2c2.4,4.3,5.9,7.9,10.2,10.3c4.4,2.5,9.5,3.8,14.6,3.7C54.9,628.3,59.9,627,64.3,624.5L64.3,624.5z"/>
		<path class="st4" d="M218.4,553.6v91h-17.3l-45.4-55.3v55.3h-20.8v-91h17.4l45.2,55.3v-55.3H218.4z"/>
		<path class="st4" d="M329.9,627.7v16.9h-70.5v-91h68.8v16.9h-47.8v19.8h42.3v16.4h-42.3v21.1L329.9,627.7z"/>
		<path class="st5" d="M375.2,643.2c-6.7-2-12.1-4.5-16.2-7.6l7.1-15.9c4.2,3,8.9,5.4,13.9,6.9c5.2,1.7,10.6,2.6,16.1,2.6
			c6,0,10.4-0.9,13.3-2.7c2.9-1.8,4.3-4.1,4.3-7.1c0-2.1-0.9-4.1-2.5-5.4c-1.9-1.6-4.1-2.7-6.5-3.4c-2.7-0.9-6.2-1.8-10.7-2.9
			c-5.8-1.3-11.4-3-17-4.9c-4.4-1.6-8.3-4.4-11.4-7.9c-3.2-3.6-4.7-8.5-4.7-14.6c-0.1-5.1,1.4-10.1,4.3-14.4
			c2.9-4.3,7.2-7.7,12.9-10.2c5.8-2.5,12.8-3.8,21.1-3.8c5.7,0,11.4,0.7,17,2.1c5.1,1.2,10.1,3.2,14.6,6l-6.5,16
			c-8.4-4.8-16.8-7.2-25.2-7.2c-5.9,0-10.3,1-13.1,2.9c-2.6,1.6-4.2,4.5-4.2,7.5c0,3.1,1.6,5.4,4.9,7c3.2,1.5,8.2,3,14.9,4.5
			c5.8,1.3,11.4,3,17,4.9c4.4,1.6,8.3,4.3,11.4,7.8c3.2,3.5,4.8,8.4,4.8,14.4c0,5.1-1.5,10-4.4,14.2c-2.9,4.3-7.3,7.7-13.1,10.2
			c-5.8,2.5-12.9,3.8-21.2,3.8C389,646.2,382,645.2,375.2,643.2z"/>
		<path class="st5" d="M487.2,640c-7.4-3.9-13.5-9.7-17.8-16.8c-8.6-14.9-8.6-33.3,0-48.2c4.3-7.1,10.4-13,17.8-16.8
			c16-8.1,35-8.1,51,0c22.6,12.1,31.2,40.2,19.1,62.8c-4.3,8.1-11,14.8-19.1,19.1C522.1,648.1,503.2,648.1,487.2,640L487.2,640z
			 M527.3,624.5c4.3-2.4,7.8-6,10.2-10.3c4.9-9.4,4.9-20.7,0-30.2c-2.4-4.3-5.9-7.9-10.2-10.3c-9.1-4.9-20-4.9-29.1,0
			c-4.3,2.4-7.8,6-10.2,10.4c-4.9,9.4-4.9,20.7,0,30.2c2.4,4.3,5.9,7.9,10.2,10.3C507.3,629.4,518.3,629.4,527.3,624.5L527.3,624.5z
			"/>
		<path class="st5" d="M618.9,570.5v24H657v16.9h-38.1v33.2h-21.1v-91h64.8v16.9L618.9,570.5z"/>
		<path class="st5" d="M719.9,570.8h-29.1v-17.2h79.3v17.2H741v73.8h-21.1V570.8z"/>
	</g>
</g>
</svg>
