<svg id="Layer_1" data-name="Layer 1" xmlns="http://www.w3.org/2000/svg" viewBox="0 0 131.71 99.42"><defs><style>.cls-1{fill:#ff8a00;}</style></defs><title>icon4</title><path class="cls-1" d="M744.23,348.81a11.4,11.4,0,0,0-3.69,1.06c-2.75,1.25-5.42,2.68-8.17,3.94a2.63,2.63,0,0,1-2,0c-5.43-2.54-10.82-5.17-16.23-7.75-.41-.2-1-.51-1.31-.35a17.15,17.15,0,0,0-3.35,2.2c-.39.36-.28,1.27-.43,2.13a49,49,0,0,0-21.37-15,50.44,50.44,0,0,0-25.82-2.3,48.66,48.66,0,0,0-23.62,11c-18.91,15.93-21.54,40.81-13.47,57.95l6.34-2.21a42.77,42.77,0,0,1-3.74-20.16,39.58,39.58,0,0,0,4.55,3.83,6.66,6.66,0,0,1,3.32,4.44,27.19,27.19,0,0,0,.75,2.92c.7,2.16,1.62,4.22,3.6,5.56.36.25.94.54,1.26.41,2.71-1,5.39-2.19,8.39-3.43-.86-.23-1.37-.34-1.85-.5a45.15,45.15,0,0,1-4.32-1.54,2,2,0,0,1-1-1.5c0-1.54,3.06-3.61,4.55-3.27,1.22.29,2.42.7,3.66.9a2.6,2.6,0,0,0,1.75-.36c2-1.34,2.5-3.59,3.16-5.65s1.69-3.17,3.88-3.41c2.91-.32,4.11-2.42,3.32-5.21a16.34,16.34,0,0,1-.54-3.94,3.6,3.6,0,0,0-1.61-3.3c-.75-.48-1.42-1.08-2.39-1.83l5.46-3a68.07,68.07,0,0,1-4.41-5.5,10.11,10.11,0,0,0-7.36-5c-2.87-.38-5.74-.73-8.7-1.1a41.74,41.74,0,0,1,13.86-7.71,1.31,1.31,0,0,1,1.16.42c.83,1.34,1.49,2.78,2.32,4.12a11.92,11.92,0,0,0,2.24,3,11.64,11.64,0,0,0,3.75,2.09,13.91,13.91,0,0,1,7.27,5,7.72,7.72,0,0,0,1.5,1.34c2.88,2.3,3.94,1.94,4.88-1.6.86-3.25,2.09-6.37,5-8.33a3.35,3.35,0,0,0,1.45-4.19,9.15,9.15,0,0,1-.14-1.07A42.91,42.91,0,0,1,704,355.33a17.75,17.75,0,0,0-2.69,3.3c-1.27,2.75-3.21,2.6-5.21,1.74a31.28,31.28,0,0,0-3-1.31,3.52,3.52,0,0,0-4.85,3.68c0,.77.17,1.53.17,2.3a2.53,2.53,0,0,1-2.15,2.8l-1.74.44c1,.51,1.63,1.1,2.3,1.14,4.08.22,8-.11,11.14-3.25,2-2,3-3.59,5.7-2.45a5.52,5.52,0,0,0,1.87.73c3.77.2,6.36-2.53,9.9-3.8-2.3-3.87-3.44-6.47-5.57-10.06a3.08,3.08,0,0,1,3.36,1c2.51,2.45,5.15,4.76,7.73,7.13.36.33.69.7,1.11,1.13-3.16,1.68-6.27,3-9,4.89-3,2-5.79,2.37-8.91.68a1.73,1.73,0,0,0-.69-.21,2.12,2.12,0,0,0-1,.11c-1.24.74-2.42,1.54-3.79,2.42,2.41,1.33,4.65,2.61,6.94,3.81a1.45,1.45,0,0,1,.92,1.68c-.28,2.7-.45,5.42-.66,8.13l.36.3c1.49-1.35,3.64-2.42,4.32-4.1a11.81,11.81,0,0,1,7-7.29c2.79-1.08,5.38-2.67,8.33-4.16.61,5,1.2,9.85,1.8,14.81,1.17.09,1.07,1.24.95,2.56,1.32-.74,2.44-1.47,3.65-2a2.32,2.32,0,0,0,1.45-2.21c.47-5.54,1-11.08,1.48-16.62a1.76,1.76,0,0,1,1.09-1.61c3.06-1.7,6.09-3.44,9-5.31a5.79,5.79,0,0,0,2-2.33C748.53,350.72,747.08,348.59,744.23,348.81Zm-30.09,25.92a19.42,19.42,0,0,0-3.09,5.77c-.82,2.06-5.44,4.44-7.48,3.58-.18-.08-.33-.25-.5-.27-.55-.06-1.2-.26-1.62-.05-3.21,1.63-6.37,3.34-9.55,5a9.86,9.86,0,0,0-.91.62c2.37,1.52,2.37,1.52,2.19,2.57-.31,1.8-1.08,2.48-3.15,2.32a6.25,6.25,0,0,0-5.34,2.31,42.21,42.21,0,0,0-6.93,10.87,5,5,0,0,0,0,4.3c.74,1.62,1.45,3.24,2.19,4.85a12.11,12.11,0,0,1,1,6.68A43.2,43.2,0,0,1,649.06,419a21.9,21.9,0,0,0,8.1-8.91,6.4,6.4,0,0,0,.57-3.16,2.54,2.54,0,0,1,1.1-2.57,5.88,5.88,0,0,1,4.11-.93c1.92.06,2.71-.47,3.16-2.24a14,14,0,0,0-1.62.38c-4.92,1.79-9.81,3.61-14.73,5.36a1.48,1.48,0,0,0-1.18,1.47c-.33,3.16-.79,6.3-1.25,9.85-2.54-2.13-4.86-4.11-7.23-6-.36-.3-.94-.68-1.31-.59-2.21.54-4.4,1.21-6.59,1.84,13,16.7,39.61,24.4,62.33,11.65a49.72,49.72,0,0,0,24.54-53.22C717.22,372.9,715.26,373.45,714.14,374.73ZM704.26,377a1.67,1.67,0,0,0,.68-.83c.9-2.74.61-3.38-2-4.57-.13-.07-.27-.1-.39-.18a1.92,1.92,0,0,0-2.46.16c-2.7,1.82-5.42,3.63-8.24,5.28-20.85,12.19-43.27,20.52-66.5,26.82a10.1,10.1,0,0,1-3.72.06c-1.65-.21-2.26-1.36-1.68-2.93a20.33,20.33,0,0,1,1-2l-.35-.36a41.1,41.1,0,0,0-3.59,3.77c-1.6,2.12-1.33,4.25.64,6a10.89,10.89,0,0,0,7.54,3.05c6.78,0,13.22-1.71,19.53-3.94C665.94,399.84,685.28,388.76,704.26,377Zm-28.53-7.79c.18-.06.44,0,.56-.09.35-.3,1-.72.9-1s-.62-.73-.83-.94c-.54.08-.74.08-.92.13-.75.25-1.81.38-1.57,1.47S675,369.44,675.73,369.2Zm-10,9.52a3.78,3.78,0,0,0,1.51-.34,4.7,4.7,0,0,0,1-.89c-.4-.36-.67-.8-.92-.79a7.51,7.51,0,0,0-2.31.44c-.25.1-.42.81-.33,1.18C664.71,378.53,665.34,378.72,665.7,378.72Z" transform="translate(-616.03 -332.04)"/></svg>