<svg id="Layer_1" data-name="Layer 1" xmlns="http://www.w3.org/2000/svg" viewBox="0 0 132.21 129.37"><defs><style>.cls-1{fill:#ff8a00;}</style></defs><title>icon2</title><path class="cls-1" d="M749.65,430.76c0-3.35-1.85-5.21-5.15-5.22q-11.28-.06-22.57,0c-3.27,0-5.2,2-5.23,5.19-.05,4.54,0,9.08,0,13.62a5.05,5.05,0,0,0,2.16,4.33,5.74,5.74,0,0,0,2.92.66q12.18,0,24.35,0c2.54-.91,3.61-2.72,3.57-5.4C749.61,439.55,749.69,435.15,749.65,430.76ZM646.44,358.29V356l.56-.36c.91,1,1.76,2.07,2.72,3,2.52,2.49,5.19,2.57,7.73.15,2.32-2.22,4.56-4.55,6.83-6.83a5.13,5.13,0,0,0,1.57-3.06,4.94,4.94,0,0,0-2.66-5.11c-2-1-4.17-.55-6.15,1.39-3.37,3.28-3.48,3.38-6.71,0-2.5-2.63-5.56-1.76-8.46-1.8-1.79,0-1.8,2.07-2.73,3.1a18,18,0,0,0-1.39,2l-3.3-5.12c-1.18,1.84-2.19,3.39-3.53,5.46-1.41-4.37-3.87-6.2-8.12-5.56-2.91.44-4.47,1.44-5.08,4.43-.42,5.22-.14,10.45-.16,15.68a64.94,64.94,0,0,0,.18,9.56,4,4,0,0,0,2.81,3.82c1.81.53,2.06,1.54,2,3.18-.06,9.23,0,18.46,0,27.68,0,2.53.93,4.44,3.25,5.49,3.75,1.7,7.59-1,7.61-5.32q.06-14.17,0-28.34c0-1.5.22-2.47,2-2.17,0,5.62.05,11.24.09,16.86,0,5,.1,9.92.15,14.88a5,5,0,0,0,3.36,4.24c3.8,1.48,7.42-1.28,7.43-5.7Q646.46,382.9,646.44,358.29Zm5.29-17a1.54,1.54,0,0,0,.84,1.63c.37.49.78,1.38,1.44.79.9-.8,2.37-1.33,2.07-3,0-4.68.15-9.37,0-14.06,0-1.78.53-2.17,2.22-2.17q39,.07,77.9,0c1.87,0,2.31.58,2.3,2.36q-.1,21.1,0,42.2c0,2-.63,2.41-2.5,2.4q-38.07-.09-76.14,0c-3.74,0-3.73,0-3.75-3.64,0-.8,0-1.61-.08-2.41s.48-1.46-.57-1.81c-2.37-.77-3.78.23-3.76,2.72,0,.58.07,1.15.1,1.73v4.83c0,.77,0,1.53,0,2.29.34,1.17,1.32.71,2,.71q43.3,0,86.6.06c1.9,0,2.5-.49,2.49-2.45-.08-14.35,0-28.7-.05-43.05,0-.95-.07-1.89-.11-2.84v-.89a17,17,0,0,0,0-4.39v-.88c.37-1.76-1-1.27-1.78-1.27q-43.68,0-87.38,0c-1.78,0-2.19.65-1.8,2.2Q651.79,331.75,651.73,341.28Zm56.84,84.25q-11.18,0-22.34,0c-3.44,0-5.34,1.8-5.41,5.23-.09,4.46-.05,8.92,0,13.38,0,2.61,1.15,4.49,3.78,5.25h25.55a4.8,4.8,0,0,0,3.63-5.09c0-4.53,0-9.06,0-13.6C713.72,427.37,711.9,425.55,708.57,425.53Zm-21.64-5.71a11,11,0,0,1,6.53-14c2.6-1,2.91-1.56,2.27-4.26a4.62,4.62,0,0,0-4.77-3.72c-3.88-.06-7.75,0-11.63,0-3.66,0-7.31,0-11,0s-5.4,1.89-5.43,5.61a1.84,1.84,0,0,0,1.57,2.12c6.43,2.05,9.53,8.09,7.36,14.42-.58,1.68,0,1.79,1.35,1.77,4.1-.05,8.2-.07,12.29,0C687.1,421.79,687.5,421.5,686.93,419.82Zm36,.38c-2.16-6.84.71-12.48,7.5-14.71.92-.3,1.27-.63,1.32-1.62.19-4-1.65-6-5.67-6.05H715.31c-3.66,0-7.32,0-11,0-3.83,0-5.78,2.14-5.62,5.95a1.57,1.57,0,0,0,1.27,1.69c7.09,2.44,9.84,7.74,7.66,14.78-.4,1.29-.07,1.52,1.11,1.51,4.39,0,8.78-.05,13.17,0C723.25,421.77,723.27,421.33,722.91,420.2Zm-88.59-77.72a8.79,8.79,0,1,0,.18-17.58,8.79,8.79,0,0,0-.18,17.58Zm99,65.14a8.66,8.66,0,0,0-8.72,8.55,8.51,8.51,0,0,0,8.42,8.57,8.39,8.39,0,0,0,8.68-8.49A8.55,8.55,0,0,0,733.36,407.62Zm-72.08,17.14a8.56,8.56,0,0,0,8.78-8.43,8.67,8.67,0,0,0-8.59-8.71,8.55,8.55,0,0,0-8.5,8.51A8.45,8.45,0,0,0,661.28,424.76Zm9.64-36.26a8.34,8.34,0,0,0,8.45,8.52A8.52,8.52,0,0,0,688,388.6a8.7,8.7,0,0,0-8.42-8.7A8.52,8.52,0,0,0,670.92,388.5Zm35.78-.1a8.54,8.54,0,0,0,8.36,8.63,8.39,8.39,0,0,0,8.72-8.42,8.52,8.52,0,0,0-8.5-8.71A8.7,8.7,0,0,0,706.7,388.4Zm-17.84,27.79a8.49,8.49,0,1,0,17-.06,8.49,8.49,0,1,0-17,.06Zm-11.2,12.88a4.33,4.33,0,0,0-4.63-3.52q-11.49-.09-23,0c-3.14,0-5,1.93-5,5.09s.09,6.58,0,9.87c-.13,3.54.24,8.82,4.8,8.82l24.38.08c1.81-.56,3.18-1.56,3.52-3.58.7-3.83.21-7.71.29-11.56C678,432.54,678.35,430.76,677.66,429.07Zm-.8-62.64a1.3,1.3,0,0,0,1.3-1.3V353.66a1.31,1.31,0,0,0-1.3-1.31h-5.3a1.31,1.31,0,0,0-1.3,1.31v11.47a1.3,1.3,0,0,0,1.3,1.3Zm12.3,0a1.3,1.3,0,0,0,1.3-1.3V349.26a1.31,1.31,0,0,0-1.3-1.31h-5.3a1.31,1.31,0,0,0-1.3,1.31v15.87a1.3,1.3,0,0,0,1.3,1.3Zm12.3,0a1.3,1.3,0,0,0,1.3-1.3V340.46a1.3,1.3,0,0,0-1.3-1.31h-5.3a1.3,1.3,0,0,0-1.3,1.31v24.67a1.3,1.3,0,0,0,1.3,1.3Zm12.3,0a1.3,1.3,0,0,0,1.3-1.3V344.42a1.3,1.3,0,0,0-1.3-1.31h-5.3a1.3,1.3,0,0,0-1.3,1.31v20.71a1.3,1.3,0,0,0,1.3,1.3Zm12.3,0a1.3,1.3,0,0,0,1.3-1.3V331.66a1.3,1.3,0,0,0-1.3-1.31h-5.3a1.3,1.3,0,0,0-1.3,1.31v33.47a1.3,1.3,0,0,0,1.3,1.3Z" transform="translate(-617.47 -320.03)"/></svg>