<svg xmlns="http://www.w3.org/2000/svg" width="157" height="91" viewBox="0 0 157 91">
  <metadata><?xpacket begin="﻿" id="W5M0MpCehiHzreSzNTczkc9d"?>
<x:xmpmeta xmlns:x="adobe:ns:meta/" x:xmptk="Adobe XMP Core 5.6-c138 79.159824, 2016/09/14-01:09:01        ">
   <rdf:RDF xmlns:rdf="http://www.w3.org/1999/02/22-rdf-syntax-ns#">
      <rdf:Description rdf:about=""/>
   </rdf:RDF>
</x:xmpmeta>
                                                                                                    
                                                                                                    
                                                                                                    
                                                                                                    
                                                                                                    
                                                                                                    
                                                                                                    
                                                                                                    
                                                                                                    
                                                                                                    
                                                                                                    
                                                                                                    
                                                                                                    
                                                                                                    
                                                                                                    
                                                                                                    
                                                                                                    
                                                                                                    
                                                                                                    
                                                                                                    
                           
<?xpacket end="w"?></metadata>
<defs>
    <style>
      .cls-1 {
        fill: #ff8a00;
        fill-rule: evenodd;
      }
    </style>
  </defs>
  <path class="cls-1" d="M111.267,59.862q0-12.355,0-24.709c0-3.768,2.2-5.981,5.943-5.981q16.536,0,33.072,0c3.614,0,5.879,2.229,5.881,5.849q0.017,24.909,0,49.819c0,3.667-2.261,5.9-5.95,5.9q-16.487.013-32.973,0c-3.749,0-5.972-2.231-5.973-5.97Q111.263,72.317,111.267,59.862Zm40.779,22.651V81.393q0-23.208.026-46.415c0-1.046-.307-1.265-1.291-1.262q-17.184.049-34.369,0c-0.99,0-1.289.227-1.287,1.266q0.054,23.208.027,46.416c0,0.355.03,0.711,0.049,1.117h36.845Zm-18.453,2.442a1.767,1.767,0,0,0-1.8,1.736,1.809,1.809,0,1,0,3.615,0A1.783,1.783,0,0,0,133.593,84.955ZM29.636,71.551a6.01,6.01,0,0,1-.064-0.605c0-3.168.011-6.337-.015-9.505-0.005-.635.17-0.946,0.841-0.873a7.5,7.5,0,0,0,.8,0h77.636v10.98h-79.2ZM71.2,66.121a2.247,2.247,0,1,0-2.235,2.233A2.265,2.265,0,0,0,71.2,66.121ZM19.524,46.428v-1.26q0-17.66,0-35.318c0-5.651,3.83-9.5,9.465-9.5q39.973,0,79.946,0a9.008,9.008,0,0,1,9.442,9.423c0.015,5.236.005,10.472,0,15.708,0,0.327-.026.653-0.044,1.056h-4.543V25.4q0-7.954,0-15.908c-0.005-3.18-1.785-4.978-4.943-4.978q-40.073-.005-80.145,0c-3.107,0-4.9,1.8-4.9,4.914q-0.01,17.86,0,35.719v1.282H19.524Zm8.022,22.964q0,7.05,0,14.1c0,4.279-2.805,7.1-7.051,7.105Q14,90.6,7.509,90.6A6.655,6.655,0,0,1,.584,83.668q-0.012-14.2,0-28.4a6.616,6.616,0,0,1,6.848-6.888q6.642-.019,13.285,0a6.61,6.61,0,0,1,6.824,6.812C27.56,59.924,27.546,64.657,27.546,69.391ZM3.312,54.273a4.746,4.746,0,0,0-.069.516q0,14.6-.019,29.2c0,0.774.356,0.848,0.975,0.846q9.89-.02,19.779-0.012a7.384,7.384,0,0,0,.832-0.09V54.273H3.312ZM14.1,89.457a1.776,1.776,0,0,0,1.766-1.777,1.8,1.8,0,1,0-3.6.07A1.773,1.773,0,0,0,14.1,89.457ZM9.665,51.081C9.4,51.776,9.614,52,10.26,52c2.526-.018,5.053,0,7.579-0.012,0.764,0,.764-0.031.53-0.9h-8.7ZM59.51,85.225c0-2.255,0-4.381,0-6.506,0-.5-0.024-1,0-1.5a1.749,1.749,0,0,1,1.825-1.838q7.592-.033,15.184,0a1.755,1.755,0,0,1,1.856,2c0.021,2.3.006,4.6,0.01,6.9,0,0.262.025,0.524,0.043,0.88,0.349,0.023.667,0.061,0.985,0.061,1.8,0,3.6-.016,5.395,0,1.78,0.013,2.566.892,2.554,2.812-0.01,1.761-.812,2.6-2.543,2.6q-14.635,0-29.271-.005c-0.932,0-1.865.026-2.8,0-1.506-.038-2.316-0.973-2.326-2.638-0.011-1.743.78-2.728,2.313-2.761,1.8-.039,3.6-0.005,5.394,0H59.51Z"/>
</svg>
