<svg id="Layer_1" data-name="Layer 1" xmlns="http://www.w3.org/2000/svg" viewBox="0 0 129.72 129.56"><defs><style>.cls-1{fill:#ff8a00;}</style></defs><title>icon3</title><path class="cls-1" d="M666.7,432.48a16.75,16.75,0,0,0-4.91-10.81c-3.18-3.18-6.22-6.5-9.32-9.76a4,4,0,0,0-5.7-.34,3.87,3.87,0,0,0-.37,5.55l3,3.81a78.64,78.64,0,0,1-8.21-2.92,3.57,3.57,0,0,1-1.61-1.44A42.71,42.71,0,0,1,634.63,404a3.18,3.18,0,0,0-3.71-2.73,3.37,3.37,0,0,0-2.78,4c.08.77.17,1.54.25,2.31-1.47-1.34-2.66-2.79-3.93-4.17a4.05,4.05,0,0,0-6.09-.11c-1.39,1.51-1.44,3.52-.1,5.43q5.94,8.52,11.92,17a7.59,7.59,0,0,0,1.25,1.4c3.89,3.35,7.81,6.65,11.68,10a32.81,32.81,0,0,1,3.36,3.31,6.25,6.25,0,0,1,1.46,5.15c-.18,1.24-.23,2.49-.35,3.82h19.19c0-2.22,0-4.37,0-6.52C666.78,439.39,667,435.92,666.7,432.48Zm77.24-30.42a3.83,3.83,0,0,0-4,1.22c-1.3,1.41-2.52,2.89-3.77,4.33l-.23-.1c.08-.7.14-1.4.23-2.09.27-2.19-.75-3.78-2.67-4.17a3.23,3.23,0,0,0-3.86,2.89,41.66,41.66,0,0,1-5,12.6,2.9,2.9,0,0,1-1.3,1.2c-2.49,1-5,2-7.54,2.93a10,10,0,0,1-1,.23l3.16-4a3.87,3.87,0,0,0-.47-5.54,4,4,0,0,0-5.6.32c-3.2,3.36-6.34,6.76-9.59,10.06a16.27,16.27,0,0,0-3.95,6.81c-2.09,6.81-.39,13.74-.8,20.63h19.13a1.93,1.93,0,0,0,0-.36,9.48,9.48,0,0,0-.14-1.07c-1-4.3.43-7.68,3.92-10.27.14-.1.28-.22.42-.34q5.85-5,11.69-10A8,8,0,0,0,733.9,426c4.12-5.85,8.26-11.68,12.27-17.6a5.35,5.35,0,0,0,.66-3.29A3.53,3.53,0,0,0,743.94,402.06ZM699.36,417c0-4.93.1-9.78,0-14.62a14.59,14.59,0,0,0-2.26-7,17.58,17.58,0,0,0-9.16-7.59c9.35-5.5,8.36-15.59,3.92-20.42a13,13,0,0,0-18.9-.43,12.47,12.47,0,0,0-3.71,9.79c.31,5,2.92,8.55,7.29,11-5.57,2.22-9.36,6-10.93,11.65a26.07,26.07,0,0,0-.69,6.13c-.1,3.8,0,7.61,0,11.47Zm-13.2-12.47c-1.25,2-2.57,3.9-4,6-1.45-2.17-2.77-4.13-4.06-6.12a1.25,1.25,0,0,1-.13-.87c1.08-4.77,2.19-9.53,3.3-14.3,0-.08.09-.14.13-.21,1.23-.39,1.71.07,2,1.33.89,4.31,1.93,8.58,2.89,12.87A1.82,1.82,0,0,1,686.16,404.48ZM674.05,379c-.09-.26-.18-.51-.25-.77-.92-3.52-.3-4.72,3.17-5.71,1.67-.48,3.42-.7,5.53-1.11,2,.53,4.3,1.15,6.59,1.73,1.34.34,1.66,1.31,1.7,2.53A8.64,8.64,0,0,1,674.05,379Zm53.39-.83a19.45,19.45,0,1,0-19.34-19.63A19.48,19.48,0,0,0,727.44,378.14Zm-10.62-23.69h6.37V348h8.61v6.36h6.53v8.61h-6.41v6.48H723.3v-6.37h-6.48Zm-80.15,23.69a19.45,19.45,0,1,0-19.38-19.46A19.48,19.48,0,0,0,636.67,378.14Zm.08-32.41,12.64,10.53-.06.3h-4v12.83H628.14V356.54h-4.36ZM682,354.37a17.29,17.29,0,1,0-17.11-17.43A17.33,17.33,0,0,0,682,354.37Zm-2.83-27.25c1.46-.72.51-1.9,1-2.9h4.06c0,.1.13.23.11.34a2.69,2.69,0,0,0,1.63,3.06,5.77,5.77,0,0,1,2.71,5.11h-4.18c-.06-.11-.11-.18-.15-.26-.56-1.43-1.46-2.06-2.58-1.82a2.2,2.2,0,0,0-1.72,2.28c.1,1.19.94,1.88,2.45,2a6.52,6.52,0,0,1,6.06,5.25,6.22,6.22,0,0,1-3.35,6.87c-1.46.73-.5,1.91-1,2.9h-4c0-.06-.13-.13-.12-.2a3,3,0,0,0-1.75-3.28,5.71,5.71,0,0,1-2.61-5h4.19a1,1,0,0,1,.13.23c.57,1.42,1.47,2.05,2.59,1.81a2.21,2.21,0,0,0,1.72-2.27c-.1-1.19-.94-1.88-2.45-2a6.49,6.49,0,0,1-6.06-5.24A6.21,6.21,0,0,1,679.14,327.12Z" transform="translate(-617.29 -319.8)"/></svg>