<?xml version="1.0" encoding="utf-8"?>
<!-- Generator: Adobe Illustrator 24.0.0, SVG Export Plug-In . SVG Version: 6.00 Build 0)  -->
<svg version="1.1" id="Layer_1" xmlns="http://www.w3.org/2000/svg" xmlns:xlink="http://www.w3.org/1999/xlink" x="0px" y="0px"
	 viewBox="0 0 171.4 57.7" style="enable-background:new 0 0 171.4 57.7;" xml:space="preserve">
<style type="text/css">
	.st0{fill:#FFFFFF;}
	.st1{fill:#F4922B;}
	.st2{fill:#EE8222;}
	.st3{fill:#FDF1DE;}
</style>
<title>logoROCKET_ngang</title>
<path class="st0" d="M56.1,25.8c0-0.3-0.2-0.6-0.4-0.8c-0.4-0.4-0.4-0.4,0-0.8c0.7-0.7,1.1-1.5,1.2-2.5c0.1-1.1,0.1-2.2,0-3.3
	c0-0.5,0-1-0.1-1.5c-0.1-0.7-0.3-1.4-0.8-2c-0.7-1-1.9-1.6-3.2-1.6c-1.4-0.1-2.9-0.1-4.4-0.2c-0.7,0-1.4,0-2.2-0.1v0.1h0.1
	c0.4,0.4,0.7,0.9,0.7,1.5c0,1-0.1,1.9-0.1,2.9c-0.1,2.2-0.1,4.5-0.2,6.7c0,0.4,0,0.7,0,1.1v0.2c0,2.5-0.1,5-0.1,7.4v0.3
	c0,0.1,0.1,0.2,0.2,0.2h3c0.2,0,0.3-0.1,0.3-0.3c0-0.1,0-0.1,0-0.2v-6.8c0-0.3,0.1-0.4,0.4-0.4H51c0.6,0,1.1-0.1,1.6-0.1
	c0.3,0,0.4,0.1,0.4,0.3V26c0.2,0.9,0.3,1.8,0.5,2.8c0.2,1.4,0.5,2.7,0.7,4.1c0.1,0.3,0.1,0.4,0.4,0.4h1.8l0.6,0.1
	c0.3,0,0.3-0.1,0.3-0.3V33C57.1,30.6,56.6,28.2,56.1,25.8z M56.8,17.7L56.8,17.7L56.8,17.7z M53.9,21.2c0,0.8-0.6,1.4-1.3,1.5
	c-0.3,0-0.6,0.1-0.9,0h-1c-0.3,0-0.4,0-0.4-0.4v-5.5c0-0.1,0-0.2,0-0.3c0-0.2,0.1-0.3,0.3-0.3l0,0l0,0c0.7,0,1.5,0,2.2,0.1
	c0.6,0.1,1,0.6,1,1.1c0,0.6,0,1.1,0.1,1.6C54,19.7,53.9,20.5,53.9,21.2L53.9,21.2z"/>
<path class="st0" d="M171.2,16c-0.2-0.7-0.6-1.4-1.2-1.9c-0.5-0.4-1.1-0.7-1.7-0.8c-1.3-0.3-2.6-0.3-3.9,0c-0.6,0.1-1.2,0.4-1.7,0.9
	c-0.4,0.5-0.7,1.1-0.9,1.7c-0.2,0.6-0.2,1.3-0.2,2v11.3c0,0.6,0.1,1.2,0.2,1.8c0.3,1.4,1.4,2.5,2.8,2.7c0.4,0.1,0.8,0.1,1.3,0.1
	c0.9,0.1,1.9,0,2.8-0.2c1.5-0.4,2.5-1.7,2.5-3.2l0,0L171.2,16C171.3,16.1,171.3,16.1,171.2,16z M168.2,25.7V26c0,0.9,0,1.8,0,2.7
	l0,0c0,0.3,0,0.6-0.1,0.9c-0.1,0.5-0.4,0.8-0.9,0.9c-0.4,0.1-0.8,0.1-1.1,0c-0.8-0.2-1.3-0.8-1.3-1.6v-1.7c0-0.1,0-0.2,0-0.4v-9.1
	c0-0.3,0-0.5,0.1-0.8c0.1-0.4,0.4-0.7,0.8-0.8c0.6-0.1,1.2-0.1,1.7,0c0.4,0.1,0.8,0.4,0.8,0.9c0,0.3,0.1,0.6,0.1,1L168.2,25.7z"/>
<path class="st0" d="M66.1,13.4c-0.7-0.3-1.5-0.5-2.3-0.5c-1,0-1.9,0.1-2.8,0.4c-0.9,0.3-1.7,1.1-1.9,2.1c-0.2,0.5-0.2,1-0.3,1.6
	c0,2.8-0.1,5.6-0.1,8.4c0,0.1,0,0.1,0,0.2v2.7c0,0.9,0.1,1.7,0.2,2.5c0.2,1.4,1.3,2.5,2.8,2.7c0.6,0.1,1.2,0.1,1.8,0.1
	c0.7,0,1.4,0,2.1-0.1c1-0.2,1.8-0.8,2.3-1.7c0.1-0.1,0.1-0.2,0.2-0.3c0.4-0.8,0.5-1.8,0.5-2.7V18.6c0-0.6,0-1.2-0.1-1.8
	C68.5,15.3,67.5,13.9,66.1,13.4z M65.3,28.7c0,0.3,0,0.6-0.1,0.9c-0.1,0.4-0.5,0.8-0.9,0.8c-0.4,0.1-0.8,0.1-1.2,0
	c-0.7-0.2-1.3-0.8-1.3-1.5c0-0.1,0-0.1,0-0.2V17.1c0-0.6,0.5-1,1-1l0,0h0.4c0.4,0,0.8,0.1,1.2,0.1c0.3,0.1,0.6,0.3,0.7,0.6
	c0.1,0.3,0.1,0.7,0.1,1.1v8.3C65.3,27,65.3,27.8,65.3,28.7z"/>
<path class="st0" d="M95,16.7c0-0.4,0.1-0.4,0.4-0.4h4.7c0.2,0,0.3,0,0.5,0c-0.1-0.5-0.2-0.9-0.3-1.3c0-0.1,0-0.3-0.1-0.4
	c-0.1-0.4-0.1-0.8-0.3-1.1c0-0.2-0.2-0.2-0.3-0.2h-8c-0.1,0-0.1,0-0.2,0.1c-0.2,0.4-0.3,0.8-0.3,1.2v1.3c-0.1,3.7-0.1,7.3-0.1,11v1
	l0.1,5.1c0,0.5,0.1,0.6,0.6,0.6h8.1c0.1,0,0.3,0,0.4-0.1c0.2-0.1,0.2-0.3,0.2-0.4s0-0.4,0-0.6c0.1-0.6,0.1-1.2,0.2-1.8
	c0-0.3,0-0.3-0.3-0.4h-5.1c-0.1,0-0.2-0.1-0.2-0.2v-2.2c0-0.2,0-0.3,0-0.5v-2c0-0.4,0-0.4,0.4-0.4h3.1c0.3,0,0.4-0.1,0.4-0.4
	c0-0.8,0.1-1.7,0.2-2.5c0-0.1,0-0.2-0.1-0.2h-3.7c-0.2,0-0.3-0.1-0.3-0.3v-0.2C95,19.8,95,18.2,95,16.7z"/>
<path class="st0" d="M156.4,18.3c0-0.5,0-1-0.1-1.5c-0.1-0.8-0.4-1.7-0.8-2.4c-0.4-0.6-1.1-1-1.8-1.2c-0.4-0.1-0.9-0.1-1.3-0.1
	c-2.1,0-4.1,0-6.2,0c-0.1,0-0.2,0-0.2,0.1c0.2,0.3,0.3,0.6,0.6,0.9c0.2,0.3,0.2,0.6,0.2,0.9v18.1c0,0.3,0.1,0.3,0.3,0.3h3.9
	c0.8,0,1.6,0,2.5-0.1c1.1-0.1,2-0.7,2.5-1.7c0.4-0.9,0.6-1.8,0.6-2.7c0-0.2,0-0.4,0-0.6L156.4,18.3z M153.4,23.7v0.4
	c0,0.1,0,0.2,0,0.3v3.8c0,0.4,0,0.8-0.1,1.2c0,0.3-0.2,0.6-0.6,0.7c-0.4,0.1-0.7,0.2-1.1,0.2c-0.5,0-0.9,0-1.4,0
	c-0.4,0-0.4-0.1-0.5-0.4c0-0.4,0-0.8,0-1.2v-0.3c0-0.1,0-0.2,0-0.4V16.8c0-0.6,0-0.6,0.5-0.5l1.8,0.1c0.2,0,0.4,0,0.6,0
	c0.1,0.1,0.2,0.1,0.3,0.1c0.2,0.2,0.3,0.4,0.3,0.6c0,0.3,0.1,0.7,0.1,1L153.4,23.7z M155.1,29.1C155,29,155,29,155.1,29.1
	L155.1,29.1L155.1,29.1c0-0.1,0-0.2,0.1-0.3C155.1,28.8,155,29,155.1,29.1L155.1,29.1z"/>
<path class="st0" d="M110.7,13.3c-0.1-0.1-0.2-0.1-0.3-0.1H101c-0.1,0-0.2,0-0.2,0s0,0,0,0.1c0.2,0.9,0.4,1.7,0.6,2.6
	c0.1,0.2,0.2,0.3,0.4,0.3h2.3c0.2,0,0.3,0.1,0.3,0.3l0,0v10.9c0,0.1,0,0.2,0,0.4v0.1v5c0,0.3,0.1,0.4,0.4,0.4l2-0.1h1
	c0.3,0,0.4-0.1,0.4-0.4c0-0.6-0.1-1.2-0.1-1.7l-0.2-5.6l-0.3-8.7c0-0.5,0-0.6,0.5-0.5h2.4c0.3,0,0.4-0.1,0.4-0.3v-2.4
	C110.8,13.5,110.8,13.3,110.7,13.3z"/>
<path class="st0" d="M124.3,25.2c-1-1.4-2-2.7-3.1-4.1c-0.7-1-1.5-1.9-2.2-2.9c-0.1-0.2-0.2-0.4-0.3-0.6c0-0.4,0-0.8,0.1-1.3
	c0-0.4,0.4-0.7,0.8-0.7c0.7,0,1.3,0,2,0.1c0.3,0,0.5,0.3,0.6,0.6v1.3c0,0.3,0.1,0.4,0.4,0.3l1.2-0.2l1-0.2c0.2,0,0.3,0,0.3-0.3
	c0.1-0.1,0.6-3.6-2-4.3c-1.3-0.3-2.7-0.4-4.1-0.2c-0.6,0.1-1.3,0.2-1.9,0.4c-0.8,0.3-1.4,1-1.5,1.8c-0.4,1.6-0.3,3.4,0.2,5
	c0.1,0.4,0.3,0.8,0.6,1.1l3.2,3.9c0.4,0.6,0.9,1.1,1.4,1.7c0,0.1,0.1,0.1,0.1,0.2l0.8,1c0.2,0.2,0.3,0.5,0.3,0.8
	c0,1-0.7,1.8-1.7,1.9c-0.3,0-0.7,0-1-0.1c-0.6-0.1-1-0.6-1.1-1.1c-0.1-0.3-0.1-0.5-0.1-0.8s-0.1-0.6-0.1-0.8s-0.2-0.3-0.4-0.3
	l-2.1,0.2c-0.4,0-0.5,0.1-0.4,0.5c0,0.4,0.1,0.8,0.1,1.2c0,0.6,0.1,1.2,0.3,1.8c0.3,1,1.1,1.8,2.2,2c0.4,0.1,0.8,0.1,1.2,0.2
	c0.8,0.1,1.7,0.1,2.5,0c1.7-0.2,3.1-1.3,3.6-2.9v-0.1c0.3-0.8,0.4-1.8,0.3-2.7C125.1,26.9,124.8,26,124.3,25.2z"/>
<path class="st0" d="M160.8,25.3V13.6c0-0.1,0-0.2,0-0.3v-0.1h-0.3c-1,0.1-1.9,0.3-2.9,0.4c-0.6,0.1-0.6,0.1-0.6,0.6
	c0.1,2.4,0.1,4.7,0.2,7.1l0.1,3.2V25c0,1.9,0.1,3.8,0.1,5.7V33c0,0.3,0.1,0.3,0.3,0.3h2.9c0.2,0,0.3-0.1,0.3-0.3v-1.7
	c0-0.1,0-0.2-0.1-0.4V25.3z"/>
<path class="st0" d="M89.9,29.3c0-0.1,0-0.2-0.1-0.3c-0.5-1.8-1.1-3.6-1.6-5.4c-0.2-0.7-0.6-1.3-1.3-1.7c-0.2-0.1-0.5-0.3-0.7-0.4
	c-0.2-0.1-0.2-0.1-0.1-0.3c0,0,0-0.1,0.1-0.1c1.3-2.5,2.6-5.1,3.9-7.6c0.1-0.1,0.1-0.2,0.1-0.3h-2.8c-0.3,0-0.5,0.1-0.6,0.4
	c-0.2,0.4-0.4,0.7-0.6,1l-2.7,5.2c-0.1,0.2-0.2,0.3-0.3,0.4c0-0.1,0-0.2,0-0.3v-6.2c0-0.4-0.1-0.5-0.5-0.5h-2.6
	c-0.5,0-0.6,0.1-0.6,0.6v1.7l0.2,8.3c0,1.1,0.1,2.1,0.1,3.2c0,0.1,0,0.2,0,0.2c0,1.4,0.1,2.8,0.1,4.2V33c0,0.3,0.1,0.4,0.4,0.4h2.4
	c0.3,0,0.3-0.1,0.3-0.3c0-0.1,0-0.1,0-0.2v-4.2c0-0.4,0-0.8,0-1.2c0-0.3,0.1-0.7,0.2-1l1.2-2.3c0-0.1,0-0.1,0.1-0.1
	c0.1,0.4,0.2,0.8,0.3,1.1c0.2,0.8,0.4,1.6,0.7,2.3c0.2,0.6,0.4,1.2,0.7,1.9c0,0.1,0,0.2,0.1,0.3c0.4,1.1,0.9,2.2,1.3,3.3
	c0.1,0.2,0.3,0.3,0.5,0.3h2.2c0.3,0,0.4-0.1,0.3-0.4C90.6,31.7,90.3,30.5,89.9,29.3z"/>
<path class="st0" d="M79.1,26.1l-1,0.3l-1.7,0.5C76.2,27,76,27,76,27.2v0.3c0,0.7-0.1,1.4-0.1,2.1c0,0.5-0.4,0.9-0.9,0.9l0,0
	c-0.5,0.1-1,0.1-1.5,0c-0.5,0-0.8-0.4-0.9-0.9c0-0.3-0.1-0.5-0.1-0.8c0-0.1,0-0.2,0-0.4V17.8c0-0.4,0-0.8,0.1-1.1
	c0-0.4,0.3-0.7,0.7-0.7c0.5-0.1,1-0.1,1.5-0.1s1,0.4,1.1,0.9c0,0.2,0.1,0.4,0.1,0.6c0,0.3,0.1,0.4,0.4,0.3l1.3-0.2l1.2-0.2
	c0.2,0,0.3-0.1,0.3-0.4c0-0.2,0-0.4-0.1-0.6c-0.1-1.3-1-2.5-2.2-3c-0.3-0.1-0.7-0.2-1-0.3c-0.9-0.1-1.7-0.1-2.6,0
	c-0.5,0-0.9,0.1-1.4,0.2c-1.1,0.2-2,1.1-2.2,2.2c-0.2,0.6-0.2,1.2-0.3,1.9V29c0,0.7,0.1,1.4,0.3,2.1c0.3,1.2,1.3,2.2,2.5,2.4
	c1.3,0.3,2.7,0.3,4,0c1.6-0.4,2.7-1.8,2.8-3.4c0-0.1,0.1-0.1,0.1-0.2c0-0.4,0.1-0.8,0.1-1.2c0-0.8,0-1.5-0.1-2.3
	C79.1,26.2,79.2,26.1,79.1,26.1z"/>
<path class="st0" d="M125.2,13.4c0.3,0.7,0.9,1.7,0.8,3c0.3,0.1,2.8-0.1,2.8,0.2v9.6v0.1v6.9c0,0.3,0.1,0.3,0.3,0.3h3.4
	c0.2,0,0.3-0.1,0.3-0.3c0-0.5-0.1-1-0.1-1.4c0-0.1,0-0.1,0-0.2c0-0.1,0-0.3,0-0.4c0-0.4,0-0.8,0-1.2c-0.1-1.3-0.1-2.7-0.2-4
	s-0.2-2.7-0.2-4c-0.1-1-0.1-2-0.2-3c0-0.8-0.1-1.5-0.1-2.2c0-0.3,0-0.3,0.3-0.3h2.4c0.3,0,0.4-0.1,0.4-0.4v-2.6
	c-0.2,0-0.5-0.1-0.8-0.1C134.1,13.2,125.3,13,125.2,13.4z"/>
<path class="st0" d="M144.9,13.4c0-0.1-0.1-0.1-0.1-0.1c-0.2,0-0.4,0-0.5,0h-1.4c-0.6,0-0.6,0-0.6,0.6v14.8c0,0.2,0,0.4-0.1,0.6
	c-0.1,0.7-0.7,1.3-1.5,1.4c-0.2,0-0.5,0-0.7,0l-0.4-0.2c0,0.1,0,0.1-0.1,0.2c0-0.1,0.1-0.1,0-0.2l0,0c-0.5-0.3-0.8-0.9-0.8-1.6v-0.5
	c0-0.1,0-0.2,0-0.3V13.8c0-0.2,0-0.3-0.1-0.5s-0.2-0.1-0.3-0.1h-2.4c-0.1,0-0.1,0-0.2,0c-0.1,0.1-0.1,0.3-0.1,0.5v13.4
	c0,0.9,0,1.7,0.1,2.6c0.1,0.7,0.3,1.4,0.6,2c0,0.1,0.1,0.3,0.2,0.4c0.5,0.8,1.3,1.3,2.2,1.4c1.1,0.2,2.3,0.2,3.5,0.1
	c0.5,0,1.1-0.2,1.5-0.6c0.8-0.6,1.3-1.5,1.5-2.4l0.1-0.1c0.2-0.6,0.2-1.2,0.2-1.8V15.1c0-0.1,0-0.2,0-0.3s0-0.2,0-0.2
	C145.4,14.2,145.2,13.8,144.9,13.4z"/>
<path class="st0" d="M139.7,30.3L139.7,30.3L139.7,30.3z"/>
<path class="st1" d="M53.4,40.6c-0.2-0.1-0.4-0.1-0.6-0.1h-3.4c-0.2,0-0.4-0.2-0.4-0.4l0,0V40c0-0.2,0.1-0.4,0.4-0.4l0,0h4.7
	c0.1,0,0.2-0.1,0.2-0.1l0,0v-1.2c0-0.1,0-0.2-0.1-0.2l0,0h-5.3c-0.5,0-1,0.4-1.2,0.9c0,0.1-0.1,0.1-0.1,0.2v1.6
	c0.1,0.1,0.1,0.1,0.1,0.2c0.2,0.6,0.7,1,1.3,1h3.2c0.1,0,0.2,0,0.3,0c0.2,0,0.4,0.2,0.4,0.4l0,0l0,0c0,0.2-0.2,0.4-0.4,0.4l0,0h-5
	v1.6h5.7c0.2-0.1,0.4-0.2,0.6-0.3c0.3-0.3,0.5-0.7,0.5-1.1s0-0.9,0-1.3C54.3,41.1,53.9,40.7,53.4,40.6z"/>
<path class="st1" d="M130.7,38.1h-5.3c-0.5,0-1,0.4-1.2,0.8c-0.1,0.2-0.1,0.5-0.1,0.7V43c0,0.6,0.3,1.1,0.9,1.3
	c0.1,0,0.2,0.1,0.3,0.2h5.6v-0.4v-3.2c0-0.4,0-0.4-0.4-0.4h-3.2c-0.2,0-0.2,0-0.2,0.2v1.1c0,0.1,0.1,0.2,0.2,0.2h1.8
	c0.3,0,0.3,0,0.3,0.3v0.3c0,0.3,0,0.3-0.3,0.3h-2.7c-0.5,0-0.7-0.2-0.7-0.7v-2c0-0.1,0-0.2,0-0.3c0-0.2,0.2-0.4,0.5-0.4h4.5
	c0.1,0,0.2-0.1,0.2-0.1l0,0l0,0v-1.1C130.9,38.2,130.8,38.1,130.7,38.1L130.7,38.1z"/>
<path class="st1" d="M134.1,39.6h4.7c0.1,0,0.2-0.1,0.2-0.2l0,0c0,0,0,0,0-0.1v-1.1c0-0.2,0-0.2-0.2-0.2h-5c-0.1,0-0.3,0-0.4,0
	c-0.5,0-0.8,0.3-1,0.8c-0.1,0.3-0.2,0.6-0.2,0.9v3c0,0.2,0,0.3,0,0.5c0.1,0.4,0.3,0.8,0.7,1c0.1,0,0.2,0.1,0.3,0.2h5.7v-1.1
	c0.1-0.4,0.1-0.4-0.4-0.4h-4.3c-0.4,0-0.7-0.3-0.6-0.8c0-0.1,0.1-0.1,0.1-0.1h3.5c0.1,0,0.2-0.1,0.2-0.2v-1.1c0-0.1-0.1-0.2-0.1-0.2
	h-3.5c-0.1,0-0.1,0-0.1-0.1C133.5,40,133.7,39.6,134.1,39.6z"/>
<path class="st1" d="M86.5,42.9h-4.3c-0.5,0-0.7-0.3-0.6-0.7c0-0.1,0.1-0.2,0.1-0.2l0,0h3.4c0.1,0,0.2,0,0.2-0.1c0,0,0,0,0-0.1v-1.1
	c0-0.1-0.1-0.2-0.1-0.2l0,0h-3.4c-0.1,0-0.2-0.1-0.2-0.2c-0.1-0.3,0.1-0.6,0.4-0.7c0.1,0,0.1,0,0.2,0h4.5c0.4,0,0.4,0,0.4-0.4v-0.8
	c0-0.3,0-0.3-0.3-0.3h-5c-0.7,0-1.3,0.4-1.4,1.1c0,0.2-0.1,0.4-0.1,0.6V43c0,0.6,0.3,1.2,0.9,1.4c0.1,0,0.1,0.1,0.2,0.1h5.8v-1.1
	C87,43,87,42.9,86.5,42.9z"/>
<path class="st1" d="M163,38.1h-5c-0.1,0-0.3,0-0.4,0c-0.5,0-0.9,0.3-1,0.8c-0.1,0.3-0.2,0.5-0.2,0.8V43c0,0.6,0.3,1.1,0.9,1.3
	c0.1,0,0.1,0.1,0.2,0.1h5.8v-1.1c0-0.5,0-0.5-0.5-0.5h-4.4c-0.5,0-0.7-0.3-0.6-0.8c0-0.1,0.1-0.1,0.2-0.1h3.4c0.1,0,0.2-0.1,0.2-0.2
	v-1.1c0-0.1-0.1-0.2-0.2-0.2H158c-0.1,0-0.1,0-0.2-0.1c-0.1-0.3,0-0.6,0.3-0.7l0,0h0.1c0.1,0,0.2,0,0.3,0h4.5c0.2,0,0.2-0.1,0.2-0.2
	v-1.1C163.2,38.2,163.1,38.1,163,38.1z"/>
<path class="st1" d="M94.7,38.1h-5.2c-0.5,0-1,0.4-1.2,0.9c-0.1,0.2-0.1,0.4-0.1,0.7v3.5c0,0.5,0.3,0.9,0.8,1.1
	c0.1,0,0.2,0.1,0.3,0.1H95v-1.3c0-0.2,0-0.2-0.2-0.2h-4.7c-0.3,0-0.5-0.2-0.5-0.5l0,0c0-0.1,0-0.2,0-0.2c0-0.1,0.1-0.2,0.1-0.2l0,0
	h3.5c0.1,0,0.2-0.1,0.2-0.2v-1.1c0-0.1-0.1-0.2-0.2-0.2h-3.4c-0.1,0-0.2,0-0.2-0.1l0,0c0-0.5,0.2-0.7,0.6-0.7h4.4
	c0.4,0,0.4,0,0.4-0.4v-0.8C95,38.1,95,38.1,94.7,38.1z"/>
<path class="st1" d="M101.9,38.1h-5.1c-0.4,0-0.4,0-0.4,0.4v5.9h5.8c0.1-0.1,0.1-0.1,0.2-0.1c0.6-0.2,0.9-0.7,0.9-1.3v-0.9
	c0-0.8,0-1.7,0-2.6C103.2,38.8,102.6,38.1,101.9,38.1z M101.8,42.3c0,0.4-0.2,0.6-0.6,0.6H98c-0.3,0-0.3,0-0.3-0.3v-2.7
	c0-0.3,0-0.3,0.3-0.3h3.2c0.4,0,0.6,0.2,0.6,0.6V42.3z"/>
<path class="st1" d="M170.7,41.3c0.3-0.1,0.4-0.4,0.5-0.7c0-0.4,0-0.9,0-1.3c0-0.5-0.3-0.9-0.7-1c-0.3-0.1-0.6-0.2-0.8-0.2h-4.9
	c-0.1,0-0.2,0.1-0.2,0.1l0,0v6.2h1.4c0.1-0.1,0.2-0.3,0.2-0.4v-1.4c0-0.5,0.1-0.5,0.5-0.5h2.4c0.5,0,0.7,0.2,0.7,0.7V44
	c0,0.2,0,0.3,0.2,0.4h1.4v-2.2C171.2,41.8,171,41.4,170.7,41.3z M169.1,40.5h-3c-0.3,0-0.3,0-0.3-0.3c0-0.6,0-0.6,0.6-0.6h2.8
	c0.3,0,0.6,0.2,0.6,0.4S169.5,40.5,169.1,40.5z"/>
<path class="st1" d="M121.4,38.1h-4c-0.7,0-1.3,0.4-1.4,1.1c-0.1,0.2-0.1,0.5-0.1,0.7v3c-0.1,0.6,0.3,1.2,1,1.4
	c0.1,0,0.2,0.1,0.2,0.1h4.3l0.3-0.2c0.5-0.2,0.9-0.7,0.9-1.2v-3.6C122.8,38.8,122.2,38.1,121.4,38.1z M121.3,42.4
	c0,0.3-0.2,0.5-0.4,0.5h-0.1h-2.5c-0.4,0-0.6-0.2-0.6-0.6v-2.1c0-0.4,0.2-0.6,0.6-0.6h2.7c0.3,0,0.4,0.2,0.4,0.5
	C121.3,40.9,121.3,41.6,121.3,42.4z"/>
<path class="st1" d="M78.4,42.9h-4.3c-0.4,0-0.6-0.2-0.6-0.6v-2.1c0-0.3,0.2-0.5,0.4-0.6l0,0h4.8c0.1,0,0.2-0.1,0.2-0.1l0,0v-1.2
	c0-0.1-0.1-0.1-0.1-0.2h-5.4c-0.5,0-0.9,0.3-1.1,0.7c-0.1,0.3-0.2,0.5-0.2,0.8v3.6c0,0.5,0.3,0.9,0.8,1.1c0.1,0,0.2,0.1,0.3,0.1H79
	c0-0.4,0-0.7,0-1.1C78.8,42.9,78.8,42.9,78.4,42.9z"/>
<path class="st1" d="M70.5,38.1h-5.3c-0.5,0-1,0.3-1.2,0.8c-0.1,0.2-0.1,0.5-0.1,0.8v3.5c0,0.5,0.3,1,0.8,1.2c0.1,0,0.2,0.1,0.3,0.2
	h5.8v-1.3c0-0.3,0-0.3-0.2-0.3h-4.7c-0.2,0-0.4-0.1-0.4-0.3c0-0.1-0.1-0.2-0.1-0.3v-1.9c0-0.1,0-0.2,0-0.3c0-0.2,0.2-0.4,0.5-0.4
	h4.7c0.1,0,0.2-0.1,0.2-0.2c0,0,0,0,0-0.1v-1.1C70.7,38.2,70.6,38.1,70.5,38.1z"/>
<path class="st1" d="M155,38.4c0-0.3,0-0.3-0.3-0.3H154c-0.3,0-0.3,0-0.3,0.3v1.8c0,0.1,0,0.3-0.3,0.3h-3.3c-0.5,0-0.5,0.1-0.5-0.5
	v-1.6c0-0.3,0-0.4-0.3-0.4h-0.6c-0.4,0-0.4,0-0.4,0.4v6h1.4c0.1-0.1,0.2-0.3,0.1-0.5v-1.3c0-0.4,0.1-0.6,0.6-0.6h2.7
	c0.4,0,0.6,0.1,0.6,0.6c0,0.4,0,0.9,0,1.3c0,0.2,0,0.3,0.2,0.5h1.4V44l-0.1-5.4C155,38.6,155,38.5,155,38.4z"/>
<path class="st1" d="M62.4,38.4c0-0.3,0-0.3-0.3-0.3h-0.7c-0.4,0-0.4,0-0.4,0.4v3.8c0,0.4-0.2,0.6-0.6,0.6h-2.9
	c-0.2,0-0.4-0.2-0.4-0.4c0-0.1,0-0.2,0-0.3v-3.9c0-0.1-0.1-0.2-0.2-0.2H56c-0.2,0-0.3,0-0.3,0.3c0,0.1,0,0.1,0,0.2V43
	c0,0.6,0.3,1.1,0.8,1.3c0.1,0,0.2,0.1,0.2,0.1h4.6c0.1-0.1,0.2-0.1,0.3-0.2c0.3-0.2,0.6-0.5,0.7-0.9c0-0.2,0.1-0.4,0.1-0.6l-0.1-4.4
	v0.1H62.4z"/>
<path class="st1" d="M146.5,38.1h-6c-0.2,0-0.2,0.1-0.2,0.2v1c0,0.3,0,0.3,0.3,0.3h2c0.1,0,0.2,0,0.2,0.1v4.7h1.6V40
	c0-0.3,0-0.4,0.4-0.4h1.9c0.3,0,0.3,0,0.3-0.3v-0.8C146.9,38.2,146.9,38.1,146.5,38.1z"/>
<path class="st1" d="M114.3,38.1h-6.1c-0.2,0-0.2,0.1-0.2,0.2v0.9c0,0.5,0,0.5,0.5,0.5h1.8c0.2,0,0.3,0,0.3,0.3c0,0.1,0,0.1,0,0.2
	v4.4h1.6V40c0-0.4,0-0.4,0.4-0.4h1.8c0.3,0,0.4,0,0.4-0.3v-0.8C114.6,38.2,114.6,38.1,114.3,38.1z"/>
<g>
	<g>
		<path class="st2" d="M26,28.1c-0.3-0.1-0.7-0.2-1.1-0.3c-0.1,0-0.2,0-0.2,0.1c-0.1,0.1-0.1,0.1-0.1,0.2c-0.1,0.3-0.3,0.7-0.4,1.1
			c-0.5,1.2-1.1,2.5-1.7,3.6c-0.3,0.5-0.6,1-0.9,1.4c-0.1,0.1-0.1,0.2-0.2,0.3s-0.1,0.1-0.1,0.1c-0.1,0.2-0.3,0.3-0.4,0.5
			c-0.2,0.2-0.4,0.4-0.7,0.6C19.9,35.9,19.4,36,19,36c-0.2,0-0.3-0.1-0.4-0.3c-0.1-0.3-0.2-0.6-0.4-0.8c-0.3-0.4-0.7-0.8-1.2-0.9
			c-0.3-0.1-0.6-0.1-0.8-0.2c-0.1,0-0.1,0-0.2-0.1c-0.1-0.1,0.1-0.1,0.1-0.1s0-0.1,0.1-0.1c0.2-0.4,0.2-0.8,0.2-1.2
			c-0.2-0.9-0.8-1.6-1.7-1.7c-1.2-0.2-2.2,0.6-2.5,1.7c-0.1,0.1-0.1,0.2-0.1,0.4H12l-0.2-0.1c-0.5-0.4-1.2-0.6-1.8-0.5
			c-0.7,0.1-1.3,0.3-1.7,0.8c-0.1,0.1-0.1,0.2-0.2,0.2S7.9,33,7.8,33c-0.4-0.2-0.8-0.3-1.2-0.4C6,32.5,5.4,32.5,5,33
			c-0.2,0.1-0.3,0.2-0.4,0.4c-0.6,0.8-1.2,1.8-1.7,2.9s-1,2.3-1.3,3.4c-0.2,0.6-0.4,1.2-0.6,1.8c-0.2,0.4-0.3,1-0.4,1.4
			c-0.2,0.6-0.3,1.2-0.4,1.8C0.1,45,0.1,45.4,0,45.8c-0.1,0.6,0,1.2,0.1,1.7c0.1,0.9,0.4,1.7,1.1,2.4c0.3,0.3,0.5,0.5,0.8,0.7
			c0.2,0.2,0.4,0.3,0.7,0.4c0.8,0.4,1.8,0.4,2.7,0.2c0.6-0.1,1.2-0.3,1.7-0.6c0.3-0.2,0.6-0.3,1-0.5c0.3-0.2,0.7-0.3,1-0.6
			s0.7-0.4,1.1-0.6c0.6-0.3,1.1-0.7,1.7-1s1.1-0.4,1.7-0.6c1.1-0.3,2.2-0.4,3.4-0.4c1.1-0.1,2.2,0,3.2,0.2c0.5,0.1,1.1,0.1,1.6,0.2
			c0.4,0.1,0.8,0.2,1.2,0.3c0.6,0.2,1.1,0.4,1.6,0.7c0.6,0.3,1.1,0.7,1.6,1.2c0.6,0.6,1.1,1.1,1.5,1.8c0.7,1,1.3,2,2,3
			c0.4,0.6,0.9,1.2,1.4,1.8s1.1,1,1.8,1.3c1,0.3,2,0.4,3,0.2s2-0.6,2.8-1.3c0.6-0.4,1.1-1.1,1.3-1.8c0.1-0.3,0.2-0.6,0.2-0.9
			s0.1-0.7,0.2-1s0.1-0.7,0.2-1c0.1-0.6,0.1-1.2,0.1-1.8c0.1-0.9,0.1-1.8,0.1-2.7c0-1.1-0.1-2.2-0.2-3.2s-0.1-2.2-0.2-3.2
			c-0.1-0.8-0.3-1.5-0.7-2.1c-0.2-0.4-0.6-0.7-1.1-1c-0.2-0.1-0.4-0.2-0.6-0.3s-0.3-0.2-0.6-0.3c-0.6-0.2-1.2-0.3-1.8-0.2
			c-0.2,0.1-0.3-0.1-0.4-0.2L35,36.5l-0.1-0.1c-0.9-1.1-2.5-1.3-3.6-0.4c-0.3,0.3-0.6,0.7-0.8,1.1c-0.1,0.2-0.1,0.2-0.3,0.2
			c-0.4,0-1,0.1-1.3,0.3c-0.1,0.1-0.2,0.1-0.2,0.1c-0.1-0.3-0.1-0.5-0.2-0.8c-0.2-0.6-0.7-1-1.3-1.2c-0.1,0-0.2-0.1-0.3-0.1
			s-0.1,0-0.1-0.1s-0.1-0.3-0.1-0.5c-0.1-0.3-0.1-0.7-0.1-1.1c0-0.7,0.1-1.5,0.1-2.1c0.1-1,0.1-2,0.2-3c0-0.2,0.1-0.4,0.1-0.7
			C26.2,28.2,26.2,28.1,26,28.1L26,28.1z"/>
		<path class="st2" d="M17.4,22.2c0.1,1.2,0.3,2.4,0.4,3.6c0.2,1.1,0.3,2.2,0.4,3.3c0,0.2,0.1,0.4,0.2,0.6c0.1,0.1,0.2,0.2,0.3,0.3
			c0.1,0.1,0.1,0.1,0.2,0c0.2-0.1,0.3-0.2,0.4-0.3l0.7-0.6c0.3-0.3,0.7-0.5,1-0.7c0.2-0.2,0.5-0.4,0.7-0.6c0.4-0.3,0.8-0.6,1.2-0.9
			c0.1-0.1,0.2-0.1,0.4-0.1c0.4,0.1,1,0.2,1.4,0.3c0.8,0.2,1.6,0.4,2.4,0.6c0.2,0.1,0.4,0.2,0.4,0.3s0.1,0.1,0.1,0.2l2,4.1
			c0.2,0.4,0.2,0.4,0.6,0.3c0.2-0.1,0.4-0.2,0.5-0.4l2.8-4.1c0.6-0.9,1.2-1.8,1.8-2.6c0.3-0.4,0.4-1,0.2-1.5
			c-0.1-0.2-0.2-0.4-0.3-0.7c-0.2-0.2-0.4-0.4-0.6-0.7c-0.1-0.1-0.3-0.2-0.4-0.1l-0.4,0.3L32,23.8c-0.1,0.1-0.2,0.1-0.2,0.1
			c-0.1,0-0.1,0-0.1-0.1s0.1-0.2,0.1-0.2c0.2-0.2,0.3-0.3,0.4-0.4c1.8-1.5,3.2-3.4,4-5.5c0.2-0.4,0.3-0.8,0.4-1.2
			c0.1-0.1,0.1-0.1,0-0.1s-0.1,0.1-0.2,0.1c-0.4,0.2-0.8,0.3-1.2,0.4c-1,0.2-1.9,0.3-2.9,0.3c-0.7,0-1.3,0-2,0
			c-0.5-0.1-1-0.1-1.5-0.2c-1.1-0.2-2.1-0.4-3.1-0.8c-2-0.7-3.8-1.8-5.3-3.2c-0.1-0.1-0.1-0.1-0.1-0.1c0,0.1-0.1,0.7-0.1,0.7
			c-0.1,1-0.1,2,0,3c0.1,1.1,0.4,2.2,0.8,3.3c0.2,0.4,0.3,0.8,0.5,1.3c0,0.1,0.1,0.1,0.1,0.2s-0.1,0.2-0.2,0.1
			c-0.1-0.1-0.1-0.1-0.2-0.2c-0.2-0.4-0.4-0.7-0.7-1.1c-0.2-0.4-0.5-0.8-0.7-1.2c-0.1-0.2-0.2-0.2-0.4-0.1l-0.6,0.3
			c-0.2,0.1-0.4,0.2-0.7,0.3c-0.6,0.3-0.9,1-0.8,1.6C17.4,21.5,17.4,21.9,17.4,22.2z M35.2,17.3c-0.2,0.1-0.3,0.1-0.5,0.2l0,0
			C34.8,17.4,35,17.3,35.2,17.3z"/>
		<path class="st2" d="M21,13.6c0.6,0.5,1.2,0.9,2,1.3c0.8,0.5,1.7,1,2.6,1.3c1.7,0.6,3.4,1,5.2,1c1.2,0.1,2.3,0,3.5-0.2
			c0.7-0.1,1.3-0.2,2-0.4c0.3-0.1,0.4-0.3,0.5-0.6c0.1-0.3,0.2-0.7,0.2-1.1c0.1-0.8,0.2-1.6,0.2-2.4c0-1.3-0.1-2.5-0.4-3.8
			c-0.4-1.8-1.1-3.5-2-5.2c-0.7-1.1-1.4-2.1-2.2-3c-0.1-0.1-0.2-0.2-0.4-0.3c-0.3-0.2-0.7-0.2-1.1,0c-1.1,0.4-2.2,1-3.2,1.7
			c-2,1.3-3.6,3-5,4.9c-1.2,1.7-2.1,3.7-2.5,5.8c-0.1,0.2,0,0.4,0.2,0.6C20.7,13.3,20.8,13.3,21,13.6z M27.5,11.3L27.5,11.3
			L27.5,11.3z"/>
		<path class="st2" d="M10.7,31.9c0.8,0,1.5-0.6,1.5-1.5c0-0.8-0.6-1.5-1.4-1.5c-0.1,0-0.1,0-0.1,0c-0.8,0-1.5,0.7-1.5,1.5
			S9.9,31.8,10.7,31.9z"/>
	</g>
	<path class="st0" d="M26.4,10.8c0-0.2,0.1-0.3,0.2-0.5c0.4-0.8,1.1-1.5,2-1.8c0.3-0.2,0.7,0,0.8,0.3c0.2,0.3,0,0.7-0.3,0.8
		c-0.1,0-0.2,0.1-0.2,0.1c-0.3,0.1-0.5,0.2-0.7,0.4s-0.3,0.4-0.4,0.7s-0.4,0.6-0.7,0.5C26.7,11.3,26.4,11.1,26.4,10.8L26.4,10.8z"/>
	<path class="st1" d="M21.4,34.5c0.1-0.2,0.1-0.2,0.2-0.3c0.3-0.4,0.6-0.9,0.9-1.4c0.6-1.2,1.2-2.4,1.7-3.6c0.2-0.3,0.3-0.7,0.4-1.1
		c0-0.1,0.1-0.1,0.1-0.2s0.1-0.1,0.2-0.1c0.4,0.1,0.8,0.2,1.1,0.3c0,0.2-0.1,0.4-0.1,0.6c-0.1,0.3-0.1,0.7-0.2,1s-0.1,0.8-0.2,1.1
		s-0.1,0.8-0.2,1.2c-0.1,0.3-0.1,0.6-0.1,1c0,0.3-0.1,0.7-0.1,1v1.5c0,0.1,0,0.1,0,0.1c0,0.1,0.1,0.1,0.1,0.1l0,0h0.3
		c0.4,0.1,0.8,0.3,1.2,0.5c0.4,0.3,0.7,0.8,0.7,1.3c0,0.2,0,0.3-0.1,0.5c0,0.1,0,0.1,0.1,0.1s0.1,0,0.1-0.1c0.2-0.2,0.3-0.3,0.6-0.4
		c0.3-0.2,0.6-0.3,0.9-0.3c0.2,0,0.4,0.1,0.6,0.2c0.1,0.1,0.2,0.1,0.2-0.1c0.1-0.2,0.2-0.4,0.3-0.6c0.3-0.4,0.8-0.8,1.3-0.9
		c0.1-0.1,0.3-0.1,0.4-0.1l0.4,0.1c0.4,0.1,0.8,0.3,1.2,0.6c0.2,0.2,0.4,0.4,0.5,0.7c0,0.1,0.1,0.1,0.2,0.1l0.1-0.1
		c0.4-0.2,0.8-0.2,1.3-0.2c0.5,0.1,0.9,0.4,1.2,0.8c0.1,0.1,0.1,0.1,0.2,0.2c0.3,0.1,0.5,0.2,0.7,0.4c0.5,0.5,0.8,1.1,0.9,1.8
		c0.1,0.2,0.1,0.4,0.1,0.7c0.1,0.3,0.1,0.7,0.2,1c0.1,0.4,0.1,0.8,0.1,1.2c0,0.3,0,0.5,0.1,0.8c0.1,0.1,0.1,0.3,0.1,0.6
		s0,0.5-0.1,0.8c0,0.2-0.1,0.4-0.1,0.7c-0.1,0.3-0.1,0.5-0.1,0.8c0,0.2,0,0.3-0.1,0.5c-0.1,0.4-0.1,0.9-0.2,1.3s-0.1,0.7-0.3,1.1
		c-0.2,0.5-0.3,1-0.6,1.4c-0.3,0.6-0.6,1.2-1.1,1.7c-0.6,0.7-1.5,1.2-2.4,1.4c-0.4,0.1-0.8,0.1-1.3,0c-0.3-0.1-0.7-0.2-1-0.3
		c-0.6-0.3-1.1-0.6-1.6-1.1c-0.3-0.3-0.7-0.7-1-1.1s-0.7-0.8-1.1-1.2c-0.2-0.3-0.4-0.5-0.7-0.7c-0.6-0.7-1.2-1.3-1.9-1.8
		c-0.3-0.2-0.6-0.4-0.9-0.7c-0.4-0.3-0.9-0.6-1.4-0.8c-0.4-0.2-0.8-0.4-1.2-0.6c-0.5-0.2-1-0.3-1.5-0.4c-0.4-0.1-0.8-0.2-1.2-0.2
		s-0.8-0.1-1.2-0.1H18c-0.2-0.1-0.4-0.1-0.7,0c-0.4,0.1-0.7,0-1.1,0.1c-0.2,0-0.5,0.1-0.7,0.1c-0.3,0.1-0.7,0.1-1.1,0.2
		c-0.4,0.1-0.9,0.2-1.3,0.3s-1,0.2-1.5,0.4c-0.4,0.1-0.9,0.2-1.3,0.4c-0.6,0.2-1.1,0.5-1.7,0.7s-1.2,0.4-1.7,0.4C6.6,48,6.3,48,6,48
		C5.7,48,5.3,48,5,48.2s-0.7,0-1.1-0.1c-0.7-0.2-1.5-0.6-1.9-1.2c-0.2-0.2-0.3-0.4-0.4-0.6c-0.2-0.3-0.3-0.6-0.3-0.8
		c-0.1-0.3-0.2-0.5-0.2-0.8C1,44.4,1,44.1,1,43.8c0-0.4,0-0.9,0.1-1.3c0.1-0.3,0.1-0.6,0.1-0.9C1.3,41,1.4,40.5,1.5,40
		c0.1-0.4,0.2-0.9,0.4-1.3c0.2-0.3,0.3-0.7,0.4-1.1C2.5,37,2.7,36.4,3,35.7c0.3-0.7,0.7-1.4,1.3-2c0.2-0.2,0.5-0.4,0.8-0.5
		c0.2-0.1,0.4-0.1,0.7-0.2c0.2-0.1,0.5-0.1,0.7,0c0.4,0.1,0.9,0.2,1.3,0.5C7.9,33.5,8,33.5,8,33.4c0.2-0.3,0.4-0.6,0.6-0.7
		c0.4-0.3,0.8-0.4,1.3-0.4c0.4,0,0.8,0.1,1.2,0.2c0.3,0.1,0.6,0.3,0.8,0.6c0,0.1,0,0.1,0.1,0.1c0-0.1,0-0.1,0-0.2
		c-0.1-0.2-0.1-0.3,0-0.5c0.1-0.3,0.1-0.6,0.3-0.8c0.1-0.2,0.2-0.3,0.3-0.4c0.1-0.2,0.3-0.3,0.4-0.3c0.3-0.1,0.6-0.2,0.9-0.2
		s0.6,0.1,0.8,0.2c0.2,0.1,0.3,0.2,0.4,0.4c0.4,0.4,0.6,1.1,0.4,1.7c-0.1,0.2-0.2,0.4-0.3,0.6l-0.1,0.1h0.1c0.3-0.1,0.6,0,1,0.1
		c0.1,0.1,0.2,0.1,0.3,0.1c0.3,0.1,0.7,0.3,0.9,0.6c0.3,0.3,0.4,0.8,0.3,1.3c0,0.2-0.1,0.3-0.1,0.6c0.1,0.1,0.2,0.1,0.4,0.1
		c0.2,0.1,0.4,0.1,0.6,0c0.3-0.1,0.6-0.2,0.9-0.3s0.6-0.3,0.8-0.5s0.3-0.3,0.5-0.5s0.3-0.3,0.4-0.6C21.4,34.5,21.4,34.5,21.4,34.5z"
		/>
	<path class="st1" d="M36.5,16.7c-0.3,0.2-0.6,0.3-0.9,0.4c-0.3,0.1-0.6,0.2-1,0.3c-0.1,0-0.2,0.1-0.2,0.2c-0.2,0.6-0.4,1.1-0.8,1.6
		c-0.2,0.3-0.3,0.6-0.4,0.8s-0.3,0.4-0.4,0.6c-0.3,0.3-0.6,0.7-0.9,1.1c-0.3,0.3-0.6,0.7-0.9,1c-0.3,0.2-0.5,0.4-0.8,0.6
		c-0.4,0.3-1,0.6-1.6,0.7c-0.3,0-0.5,0-0.8,0.2c-0.2,0.1-0.4,0.1-0.6,0l-0.8-0.1c-0.3-0.1-0.6-0.1-0.9-0.3c-0.5-0.2-1-0.4-1.5-0.8
		c-0.2-0.1-0.4-0.3-0.6-0.4c-0.1-0.1-0.2-0.2-0.3-0.3c-0.2-0.1-0.3-0.3-0.4-0.4c-0.2-0.2-0.3-0.4-0.5-0.7c-0.3-0.4-0.5-0.8-0.7-1.2
		c-0.2-0.5-0.3-1-0.4-1.6C21,18.1,21,17.9,21,17.6c-0.1-0.8,0-1.7,0-2.5c0-0.3,0-0.6,0.1-0.8c0.1-0.1,0-0.3-0.1-0.3
		c-0.2-0.1-0.3-0.3-0.5-0.4c-0.1-0.1-0.1-0.1-0.2-0.1c0-0.1,0-0.1,0-0.2c0.1,0,0.1,0.1,0.1,0.1c1.5,1.4,3.3,2.5,5.3,3.2
		c1,0.3,2,0.6,3.1,0.8c0.5,0.1,1,0.2,1.5,0.2c0.7,0.1,1.3,0.1,2,0c1,0,2-0.1,2.9-0.3c0.4-0.1,0.8-0.2,1.2-0.4
		C36.5,16.8,36.5,16.8,36.5,16.7C36.6,16.6,36.6,16.6,36.5,16.7z"/>
	<path class="st2" d="M35.2,43.4c0,0.4-0.1,0.8-0.4,1.1c-0.1,0.1-0.2,0.2-0.3,0.3s-0.1,0.1-0.1,0.2c0,0.2,0.1,0.5,0.2,0.7
		s0.2,0.4,0.4,0.6c0.2,0.2,0.3,0.6,0.3,0.8c0,0.3-0.1,0.7-0.3,1c-0.3,0.4-0.8,0.7-1.4,0.7c-0.4,0-0.8-0.2-1.1-0.6
		C32.4,48,32.3,48,32.2,48c-0.3-0.1-0.6-0.1-0.8,0c-0.1,0-0.2,0.1-0.2,0.2c-0.2,0.3-0.4,0.5-0.8,0.6c-0.8,0.3-1.7-0.2-2-1
		c0-0.1-0.1-0.1-0.1-0.2c-0.2-0.6,0.1-1.2,0.6-1.6c0.1-0.1,0.2-0.2,0.2-0.3c0.1-0.2,0.1-0.3,0.1-0.4c0.1-0.2-0.1-0.4-0.2-0.6
		c-0.3-0.2-0.6-0.6-0.6-0.9C28.2,43,28.7,42,29.6,42c0.4-0.1,0.8,0,1.2,0.2c0.2,0.1,0.3,0.3,0.4,0.4s0.2,0.2,0.2,0.2
		c0.2,0,0.3,0.1,0.4,0.1c0.2,0,0.4-0.1,0.5-0.3c0.2-0.3,0.5-0.5,0.9-0.6c0.5-0.1,1,0,1.4,0.3c0.2,0.2,0.4,0.4,0.4,0.7
		C35.2,43,35.2,43.2,35.2,43.4z M30.5,45.4L30.5,45.4c-0.1,0.3,0.1,0.4,0.2,0.5c0.2,0.1,0.3,0.2,0.4,0.4c0.1,0.1,0.2,0.2,0.4,0.2
		c0.1,0,0.1,0,0.2,0c0.3,0.1,0.6-0.1,0.7-0.3c0.1-0.1,0.2-0.3,0.3-0.3c0.1-0.1,0.2-0.2,0.2-0.3s0-0.2,0.1-0.2c0.1-0.2,0-0.4-0.2-0.6
		c-0.2-0.1-0.3-0.3-0.4-0.4s-0.2-0.2-0.4-0.2c-0.2,0-0.3,0-0.5,0s-0.3,0.1-0.4,0.2s-0.2,0.2-0.3,0.3s-0.1,0.1-0.1,0.2
		C30.5,45,30.5,45.2,30.5,45.4z M32.4,47.2c0,0.6,0.5,1.2,1.1,1.2c0.7,0,1.2-0.5,1.2-1.2S34.2,46,33.5,46l0,0
		C33,46,32.5,46.5,32.4,47.2L32.4,47.2z M31,47.2c0.1-0.7-0.4-1.2-1.1-1.2s-1.2,0.4-1.2,1.1c0,0.1,0,0.1,0,0.2
		c-0.1,0.7,0.4,1.2,1.1,1.2S31,48,31,47.4C31,47.3,31,47.2,31,47.2z M33.6,44.5c0.7,0,1.2-0.5,1.2-1.2S34.3,42,33.6,42
		s-1.2,0.5-1.2,1.2l0,0C32.4,44,32.9,44.5,33.6,44.5C33.6,44.5,33.6,44.5,33.6,44.5L33.6,44.5z M31,43.4c0-0.6-0.5-1.2-1.1-1.2l0,0
		c-0.7,0-1.2,0.5-1.2,1.2s0.5,1.2,1.2,1.2C30.5,44.5,31,44,31,43.4L31,43.4z"/>
	<path class="st2" d="M10,39.9c0.2,0,0.3-0.1,0.4-0.1c0.3-0.1,0.7-0.1,1-0.1c0.5,0.2,1,0.3,1.5,0.4c0.3,0.1,0.4,0.3,0.4,0.6v0.1
		c-0.2,0.6-0.3,1.2-0.6,1.7c-0.1,0.1-0.1,0.2-0.2,0.3s-0.3,0.1-0.4,0.1c-0.2-0.1-0.3-0.1-0.5-0.2c-0.3-0.1-0.7-0.2-1-0.3
		s-0.5-0.3-0.7-0.5c-0.1-0.1-0.2-0.2-0.3-0.2c-0.1,0.1,0,0.1,0,0.1l0.1,0.1c0.1,0.3,0.2,0.6,0.1,1c-0.2,0.5-0.3,1-0.4,1.5
		c-0.1,0.2-0.2,0.3-0.3,0.3s-0.1,0-0.2,0l-1.3-0.2c-0.2-0.1-0.4-0.1-0.7-0.2c-0.4-0.2-0.4-0.3-0.4-0.7s0.2-0.7,0.3-1
		c0-0.1,0-0.1,0.1-0.2c0.1-0.4,0.3-0.8,0.7-1c0.1-0.1,0.1-0.1,0.2-0.2c-0.2,0-0.4,0.1-0.6,0.1c-0.1,0.1-0.3,0.1-0.4,0.1
		c-0.6-0.2-1.1-0.3-1.6-0.5c-0.3-0.1-0.4-0.3-0.4-0.6c0-0.1,0-0.1,0.1-0.1c0.2-0.6,0.3-1.1,0.5-1.7c0.1-0.2,0.2-0.3,0.4-0.4
		C5.9,38,6,38,6,38c0.4,0.1,0.8,0.2,1.2,0.3c0.2,0.1,0.4,0.1,0.6,0.3c0.2,0.1,0.3,0.3,0.5,0.5l0.1,0.2c0.1-0.1,0-0.1,0-0.1
		c-0.1-0.2-0.1-0.4-0.2-0.7c-0.1-0.1-0.1-0.2,0-0.3c0.2-0.6,0.3-1.1,0.4-1.7c0.1-0.2,0.3-0.4,0.4-0.4s0.1,0,0.2,0l1,0.3
		c0.3,0.1,0.6,0.2,0.8,0.3c0.1,0,0.2,0.1,0.2,0.1c0.1,0.1,0.2,0.2,0.2,0.3c0,0.2,0,0.3-0.1,0.5c-0.1,0.3-0.2,0.6-0.2,0.8
		c-0.1,0.4-0.3,0.9-0.7,1.2C10.3,39.7,10.1,39.8,10,39.9L10,39.9L10,39.9z M7,43.3c-0.1,0.2,0.1,0.4,0.3,0.4c0.5,0.2,1,0.3,1.5,0.4
		c0.2,0.1,0.4,0,0.5-0.2c0-0.1,0-0.1,0-0.1c0.2-0.4,0.3-1,0.4-1.4c0-0.1,0-0.1,0-0.2c-0.1-0.4-0.3-0.8-0.6-1.1
		c-0.2-0.3-0.6-0.3-0.8-0.2c-0.2,0.1-0.4,0.2-0.6,0.3c-0.3,0.2-0.4,0.4-0.5,0.7S7,42.5,7,42.9C6.9,43.2,6.9,43.2,7,43.3z M8.3,38.5
		c0,0.1,0,0.2,0.1,0.2c0.2,0.3,0.3,0.6,0.4,0.9c0.1,0.2,0.2,0.2,0.4,0.3c0.1,0,0.1,0,0.1,0c0.3-0.1,0.7-0.3,1-0.5s0.4-0.5,0.5-0.8
		S11,38,11,37.7c0.1-0.2,0-0.4-0.2-0.5c-0.1,0-0.1,0-0.1-0.1c-0.4-0.2-1-0.3-1.4-0.4c-0.2-0.1-0.4,0-0.6,0.2c0,0.1,0,0.1,0,0.1
		c-0.1,0.4-0.2,0.9-0.4,1.3C8.3,38.5,8.3,38.5,8.3,38.5z M5.2,40.3c0,0.2,0.1,0.4,0.3,0.4L7,41.1c0.1,0,0.2,0,0.2,0
		c0.3-0.2,0.7-0.3,1.1-0.6c0.1-0.1,0.2-0.2,0.2-0.3s0-0.2-0.1-0.3c-0.1-0.3-0.3-0.6-0.5-0.8c-0.2-0.3-0.5-0.4-0.8-0.5
		c-0.2-0.1-0.4-0.1-0.6-0.2c-0.1,0-0.2-0.1-0.3-0.1c-0.2-0.1-0.4,0.1-0.4,0.2s-0.1,0.1-0.1,0.2c-0.2,0.4-0.3,0.9-0.4,1.3
		C5.2,40.2,5.2,40.3,5.2,40.3z M11.8,42.5c0.1,0,0.2-0.1,0.3-0.2s0.1-0.1,0.1-0.2c0.2-0.4,0.3-1,0.4-1.4c0.1-0.2-0.1-0.4-0.2-0.6
		c0,0,0,0-0.1,0c-0.4-0.2-1-0.3-1.4-0.4c-0.1-0.1-0.2-0.1-0.3,0c-0.3,0.2-0.7,0.3-1,0.5c-0.2,0.1-0.3,0.4-0.2,0.7l0,0
		c0.1,0.3,0.3,0.6,0.4,0.8c0.2,0.3,0.4,0.4,0.8,0.5c0.3,0.1,0.6,0.2,0.8,0.2C11.6,42.5,11.7,42.5,11.8,42.5L11.8,42.5z"/>
	<path class="st1" d="M34.9,24.7c-0.1,0-0.3-0.1-0.3-0.2c-0.1-0.3-0.3-0.5-0.4-0.7s-0.1-0.4,0.1-0.5s0.3-0.1,0.4,0s0.2,0.2,0.2,0.2
		c0.2,0.2,0.3,0.4,0.4,0.7C35.2,24.4,35.1,24.7,34.9,24.7L34.9,24.7z"/>
	<path class="st1" d="M31.4,16.9c-0.2,0-0.4,0-0.6,0c-0.3-0.1-0.6,0-1-0.1c-0.2,0-0.3-0.1-0.4-0.1c-0.8-0.1-1.7-0.2-2.5-0.5
		c-0.7-0.2-1.3-0.4-2-0.7s-1.4-0.6-2.1-1.1c-0.5-0.3-1-0.6-1.5-0.9l-0.1-0.1c-0.3-0.2-0.3-0.2-0.2-0.5c0.1-0.6,0.2-1.1,0.3-1.7
		c0.2-0.5,0.3-1.1,0.6-1.6c0.2-0.5,0.4-1,0.7-1.5c0.3-0.6,0.8-1.2,1.2-1.7C24,6,24.2,5.8,24.4,5.6c0.4-0.6,1-1.1,1.5-1.6
		c0.2-0.3,0.5-0.5,0.7-0.8c0.3-0.3,0.7-0.7,1.1-1s0.7-0.5,1-0.7c0.1-0.1,0.3-0.2,0.4-0.3c0.4-0.2,0.7-0.5,1.1-0.6
		c0.3-0.1,0.5-0.2,0.8-0.3c0.4-0.1,0.9,0,1.3,0.3c0.3,0.2,0.4,0.3,0.6,0.4c0.2,0.3,0.5,0.6,0.7,0.8C33.7,2,33.9,2.2,34,2.4
		c0.1,0.1,0.1,0.2,0.1,0.2c0.1,0.2,0.3,0.4,0.4,0.6c0.2,0.2,0.4,0.5,0.5,0.8c0.2,0.4,0.4,0.8,0.6,1.3c0.1,0.1,0.1,0.2,0.1,0.3
		c0.1,0.2,0.1,0.4,0.2,0.6C36,6.4,36,6.6,36,6.7c0,0.2,0.1,0.3,0.1,0.5c0.1,0.3,0.2,0.6,0.2,0.8c0.1,0.3,0.1,0.7,0.1,1.1
		c0.1,0.4,0.1,0.8,0,1.3c0,0.3-0.1,0.6-0.1,1c-0.1,0.4-0.1,0.7-0.2,1.1c-0.1,0.3-0.1,0.7-0.2,1.1c-0.2,0.7-0.4,1.5-0.7,2.2
		c-0.1,0-0.1,0.1-0.1,0.1c-0.1,0.1-0.2,0.2-0.3,0.2c-0.3,0.1-0.6,0.1-1,0.1c-0.3,0.1-0.7,0.1-1,0.1h-0.1
		C32.3,16.9,31.8,17,31.4,16.9z"/>
	<path class="st1" d="M10.7,29c0.5,0,1,0.2,1.1,0.7c0.1,0.2,0.1,0.4,0.1,0.7c-0.1,0.7-0.7,1.2-1.4,1.1c-0.6-0.1-1-0.5-1.1-1
		c-0.1-0.6,0.3-1.1,0.8-1.3C10.4,29,10.5,29,10.7,29z"/>
	<path class="st1" d="M30.5,45.4c0-0.2,0-0.4,0.1-0.6c0-0.1,0.1-0.2,0.1-0.2c0.1-0.1,0.2-0.2,0.3-0.3s0.3-0.2,0.4-0.2
		c0.2,0,0.3,0,0.5,0c0.2,0,0.3,0.1,0.4,0.2s0.3,0.3,0.4,0.4c0.2,0.2,0.2,0.4,0.2,0.6c0,0.1,0,0.2-0.1,0.2c0,0.2-0.1,0.3-0.2,0.3
		c-0.1,0.1-0.3,0.2-0.3,0.3c-0.2,0.2-0.4,0.3-0.7,0.3c-0.1,0-0.1,0-0.2,0c-0.2,0-0.3-0.1-0.4-0.2c-0.1-0.2-0.2-0.3-0.4-0.4
		C30.4,45.7,30.4,45.5,30.5,45.4L30.5,45.4L30.5,45.4L30.5,45.4z"/>
	<path class="st3" d="M32.5,47.2c0-0.6,0.5-1.2,1.2-1.2l0,0c0.7,0,1.2,0.6,1.2,1.2l0,0c0,0.7-0.6,1.2-1.2,1.2l0,0
		C33,48.3,32.5,47.8,32.5,47.2z"/>
	<path class="st3" d="M31,47.2c0,0.7-0.6,1.2-1.2,1.2c-0.7,0-1.2-0.6-1.2-1.2c0-0.7,0.6-1.2,1.2-1.2l0,0C30.5,46,31,46.5,31,47.2
		L31,47.2z"/>
	<path class="st3" d="M33.6,44.5c-0.7,0.1-1.2-0.4-1.2-1.1c-0.1-0.7,0.4-1.2,1.1-1.2c0.1,0,0.1,0,0.2,0c0.7,0.1,1.1,0.6,1.1,1.3
		C34.7,44,34.2,44.5,33.6,44.5z"/>
	<path class="st3" d="M31,43.4c0,0.6-0.5,1.2-1.2,1.2l0,0c-0.7,0-1.2-0.5-1.2-1.2s0.5-1.2,1.2-1.2S31,42.7,31,43.4L31,43.4z"/>
	<path class="st3" d="M7,43.3C7,43.2,7,43,7.1,43c0.1-0.3,0.2-0.6,0.2-1c0.1-0.3,0.2-0.6,0.5-0.7C8,41.3,8.1,41,8.4,41
		c0.3-0.2,0.7-0.1,0.8,0.2c0.3,0.3,0.4,0.7,0.6,1.1c0,0.1,0,0.1,0,0.2c-0.1,0.5-0.3,1-0.4,1.4c-0.1,0.2-0.2,0.3-0.4,0.3
		c-0.1,0-0.1,0-0.1,0c-0.5-0.1-1-0.3-1.5-0.4C7.1,43.7,6.9,43.5,7,43.3C7,43.4,7,43.4,7,43.3z"/>
	<path class="st3" d="M8.3,38.5c0-0.1,0-0.1,0-0.2c0.1-0.4,0.2-0.9,0.4-1.3c0.1-0.2,0.3-0.4,0.5-0.3c0.1,0,0.1,0,0.1,0
		c0.4,0.2,1,0.3,1.4,0.4c0.2,0.1,0.4,0.2,0.3,0.4c0,0.1,0,0.1-0.1,0.1c-0.1,0.3-0.2,0.6-0.2,0.9c-0.1,0.3-0.2,0.6-0.5,0.8
		s-0.6,0.4-1,0.5c-0.1,0-0.1,0-0.1,0c-0.2-0.1-0.3-0.2-0.4-0.3C8.5,39,8.4,38.9,8.3,38.5C8.3,38.7,8.3,38.7,8.3,38.5z"/>
	<path class="st3" d="M5.2,40.3c0-0.1,0-0.1,0-0.2c0.2-0.4,0.3-0.9,0.4-1.3c0-0.1,0.1-0.1,0.1-0.2c0.1-0.2,0.3-0.3,0.4-0.2
		c0.1,0,0.2,0.1,0.3,0.1c0.2,0.1,0.4,0.1,0.6,0.2c0.3,0.1,0.6,0.2,0.8,0.5c0.2,0.2,0.4,0.5,0.5,0.8c0.1,0.1,0.1,0.2,0.1,0.3
		s-0.1,0.2-0.2,0.3c-0.3,0.2-0.7,0.4-1.1,0.6c-0.1,0-0.2,0-0.2,0l-1.5-0.4C5.3,40.7,5.2,40.5,5.2,40.3z"/>
	<path class="st3" d="M11.8,42.5c-0.1,0-0.2,0-0.3-0.1c-0.3-0.1-0.6-0.2-0.8-0.2c-0.3-0.1-0.6-0.2-0.8-0.5c-0.2-0.2-0.3-0.5-0.4-0.8
		c-0.1-0.2,0-0.6,0.2-0.7l0,0c0.3-0.2,0.7-0.3,1-0.5c0.1-0.1,0.2-0.1,0.3,0c0.4,0.1,1,0.3,1.4,0.4c0.2,0.1,0.3,0.3,0.3,0.5
		c0,0,0,0,0,0.1c-0.2,0.4-0.3,1-0.4,1.4c0,0.1-0.1,0.2-0.1,0.2C12.1,42.5,11.9,42.5,11.8,42.5z"/>
	<path class="st1" d="M10,39.9L10,39.9L10,39.9z"/>
	<path class="st3" d="M25.7,10.3c0.1-0.2,0.1-0.3,0.2-0.4c0.5-1.1,1.5-1.9,2.7-2.1c0.6-0.1,1.1-0.1,1.7,0.1h0.1
		C30.4,8,30.5,8,30.5,8l0,0c0,0,0.1,0,0.1,0l0,0c0.1,0.1,0.1,0.1,0.1,0.1l0,0c0,0.1,0.1,0.1,0.1,0.1l0,0c0,0.1,0.1,0.1,0.1,0.1l0,0
		C31,8.4,31,8.4,31.1,8.4c0.2,0.1,0.4,0.2,0.6,0.4c1.1,0.9,1.6,2.3,1.2,3.6c-0.4,2-2.3,3.3-4.3,2.9c-1.7-0.3-3-1.9-3-3.6
		c0-0.3,0.1-0.7,0.1-1.1L25.7,10.3L25.7,10.3z"/>
	<path class="st0" d="M26.4,10.8c0,0.3,0.3,0.7,0.6,0.7s0.6-0.2,0.6-0.5c0.1-0.3,0.2-0.5,0.4-0.7s0.4-0.4,0.7-0.4
		c0.1,0,0.2-0.1,0.2-0.1c0.3-0.2,0.4-0.6,0.3-0.8c-0.2-0.3-0.6-0.4-0.8-0.3c-0.9,0.3-1.6,1-2,1.8C26.5,10.4,26.4,10.6,26.4,10.8z"/>
</g>
</svg>
